<?xml version="1.0" encoding="UTF-8" standalone="no"?>
<!-- Created with Inkscape (http://www.inkscape.org/) -->

<svg
   width="30000mm"
   height="30000mm"
   viewBox="0 0 30000 30000"
   version="1.1"
   id="svg1"
   inkscape:version="1.4.2 (ebf0e940d0, 2025-05-08)"
   sodipodi:docname="mallus2.svg"
   xmlns:inkscape="http://www.inkscape.org/namespaces/inkscape"
   xmlns:sodipodi="http://sodipodi.sourceforge.net/DTD/sodipodi-0.dtd"
   xmlns="http://www.w3.org/2000/svg"
   xmlns:svg="http://www.w3.org/2000/svg">
  <sodipodi:namedview
     id="namedview1"
     pagecolor="#ffffff"
     bordercolor="#000000"
     borderopacity="0.25"
     inkscape:showpageshadow="2"
     inkscape:pageopacity="0.0"
     inkscape:pagecheckerboard="0"
     inkscape:deskcolor="#d1d1d1"
     inkscape:document-units="mm"
     inkscape:zoom="0.22627417"
     inkscape:cx="49079.84"
     inkscape:cy="31251.91"
     inkscape:window-width="1896"
     inkscape:window-height="1016"
     inkscape:window-x="0"
     inkscape:window-y="0"
     inkscape:window-maximized="1"
     inkscape:current-layer="layer2"
     showgrid="false" />
  <defs
     id="defs1" />
  <g
     inkscape:label="Ocean"
     inkscape:groupmode="layer"
     id="ocean"
     style="display:inline">
    <rect
       style="display:inline;fill:#000080;fill-opacity:1;stroke:none;stroke-width:9.83361;stroke-linecap:round;stroke-dasharray:none;stroke-opacity:1;paint-order:stroke fill markers"
       id="rect3"
       width="30000"
       height="30000"
       x="0"
       y="0" />
  </g>
  <g
     inkscape:groupmode="layer"
     id="layer1"
     inkscape:label="Land">
    <path
       id="old_world"
       fill="none"
       stroke="#ffbb00"
       stroke-width="1.00669"
       stroke-linecap="square"
       stroke-linejoin="bevel"
       d="m 18595.639,6202.2662 c -30.949,-50.2912 -350.317,-57.8687 -530.127,7.0565 -73.942,26.6992 -160.44,10.0236 -184.652,20.0308 -60.902,25.1716 -43.18,117.0405 -111.378,113.5605 -155.316,-7.926 -252.734,94.465 -309.896,48.781 -66.087,-52.815 -133.048,1.994 -187.362,-86.6711 -23.98,-39.1471 -257.336,-81.0913 -324.434,-84.3199 -150.727,-7.2522 -312.918,-74.6844 -384.386,10.162 -111.022,131.805 -131.798,96.2102 -183.464,91.5976 -25.922,-2.3144 -59.206,42.2694 -97.67,81.1004 -141.202,142.547 -172.462,18.63 -238.18,-12.068 -19.82,-9.258 -84.034,-28.946 -128.048,-22.11 -41.096,6.384 -19.422,-34.366 -32.64,-36.829 -102.315,-19.0642 -85.746,-87.3419 -105.76,-86.6356 -60.982,2.1517 -27.119,37.4932 -117.218,44.8693 -49.584,4.0593 -13.181,-98.8473 -35.466,-118.9972 -31.042,-28.0673 -89.472,51.9108 -139.315,60.4919 -79.996,13.7724 -76.44,-70.35 -179.148,-47.1846 -35.761,8.066 -104.684,-8.9766 -143.869,-7.4232 -46.294,1.8354 -48.322,-27.2948 -78.642,-35.8617 -17.354,-4.9036 -28.318,8.7693 -138.384,-5.5579 -6.392,-0.8321 -64.948,-33.8385 -149.529,-33.9485 -109,-0.1419 -34.011,124.3805 -225.44,90.3544 -24.283,-4.3163 -136.408,1.5779 -179.548,-10.1871 -23.487,-6.4052 -18.452,-42.8482 -46.685,-69.2742 -12.247,-11.4624 -53.998,3.5992 -77.884,-43.9375 -9.374,-18.654 -7.544,-38.8779 -6.735,-72.4591 0.728,-30.2454 -123.063,3.6247 -188.287,14.505 -25.549,4.2618 -84.837,0.6728 -111.453,11.2181 -26.616,10.5453 -20.76,28.1535 -55.684,42.6564 -25.031,10.3945 -139.399,34.9205 -176.827,20.6807 -37.368,-14.217 -83.846,-42.4815 -110.198,-29.321 -82.748,41.3263 -90.623,-115.8664 -245.747,-69.3844 -128.745,38.5779 -136.945,-51.0308 -286.084,-29.8826 -76.277,10.8162 88.467,-122.8324 -9.437,-122.0954 -50.084,0.3771 -92.88,12.3048 -124.868,-1.7748 -35.145,-15.4696 -63.589,-17.7425 -84.656,3.3814 -24.504,24.5709 -0.339,28.1536 -9.329,77.9802 -3.543,19.6374 -45.436,13.6259 -42.471,24.6048 21.053,77.9552 -33.957,48.389 -35.317,113.5711 -1.379,66.0808 -180.108,52.8925 -187.832,96.6164 -6.255,35.4061 3.837,47.1581 -12.767,56.808 -16.604,9.6497 -70.797,15.0473 -88.295,37.5444 -19.48,25.0449 32.222,-22.2581 -64.486,107.7537 -22.986,30.9 -62.683,108.95 -51.888,133.352 7.954,17.979 -25.755,55.822 -28.123,80.804 -2.852,30.077 -23.291,20.937 -41.451,54.868 -25.341,47.349 -14.049,16.203 -12.386,57.594 2.266,56.405 64.196,67.215 91.226,74.874 14.934,4.232 38.311,21.149 28.167,32.567 -22.144,24.925 -31.647,120.343 -15.24,150.298 10.528,19.221 25.811,-7.947 42.36,33.262 15.808,39.363 -52.143,103.243 -41.205,133.023 10.625,28.93 15.257,60.08 19.934,92.593 11.323,78.708 -50.806,231.948 -130.514,155.613 -55.838,-53.475 59.174,-74.118 1.142,-135.384 -19.806,-20.909 -4.169,-36.966 -2.61,-44.08 18.288,-83.499 -77.467,-126.457 -91.951,-136.299 -54.043,-36.723 -13.776,-114.493 -70.748,-127.581 -66.916,-15.374 -59.763,-54.144 -83.944,-59.219 -27.713,-5.816 -0.05,-64.093 -11.845,-89.176 -19.291,-41.037 37.505,-33.631 11.666,-61.705 -28.297,-30.746 -67.197,-60.824 -88.912,-38.934 -2.364,2.384 -40.598,-3.457 -41.164,-6.992 -5.546,-34.726 -74.053,24.924 -103.308,27.746 -85.249,8.226 -92.85,-77.597 -141.121,-64.044 -72.373,20.32 -38.571,-7.57 -89.991,-13.776 -88.542,-10.687 -86.109,3.237 -123.785,6.32 -96.351,7.883 45.196,97.424 -105.8,93.773 -80.831,-1.955 -61.959,-130.334 -156.149,-57.888 -87.839,67.562 -77.663,-37.755 -131.327,-34.632 -71.636,4.169 -70.621,-4.965 -58.383,-21.575 6.119,-8.306 15.044,-18.481 19.096,-29.797 4.052,-11.316 -16.521,-28.366 -10.14,-36.645 23.244,-30.159 39.976,-63.552 43.498,-81.211 3.52,-17.659 -6.172,-19.584 -13.902,-32.118 -7.73,-12.535 -33.99,-21.136 -44.342,-34.167 -10.354,-13.031 -2.066,-34.79 -21.168,-44.7344 -24.897,-12.9614 -25.662,-11.2952 -53.592,-38.7094 -5.938,-5.8286 -17.527,-9.3615 -24.66,-15.8888 -7.875,-7.2059 -0.36,-31.7508 -9.823,-45.9456 -11.668,-17.5027 -35.089,-11.1338 -42.527,-12.2584 -9.136,-1.3818 -13.898,7.6317 -16.954,12.971 -3.055,5.3395 -4.342,10.0779 -6.378,9.4976 -2.07,-0.5901 -9.511,-8.2452 -10.797,-22.6789 -1.349,-15.1369 -18.242,-1.6752 -26.212,-10.3711 -7.97,-8.6957 -14.895,-25.1676 -26.466,-23.6882 -18.679,2.388 -32.789,28.2708 -36.086,38.4136 -3.296,10.1428 -22.728,24.5897 -25.889,33.0354 -9.183,24.5283 30.339,18.7392 7.628,41.4394 -13.185,13.1792 -9.696,42.3578 7.642,45.7668 117.036,23.01 -67.245,53.457 -61.807,70.649 25.759,81.427 -127.938,51.544 -124.508,122.155 6.615,136.204 -175.982,-56.151 -167.987,16.732 9.302,84.809 8.851,126.645 -102.116,147.479 -35.524,6.67 -40.051,108.759 -43.992,148.707 -3.852,39.051 160.631,196.532 -6.379,127.401 -70.527,-29.192 -238.3362,-45.498 -167.586,-123.844 34.758,-38.489 78.145,-144.355 -91.0052,-91.107 -57.971,18.249 -25.35,44.644 -42.929,62.392 -23.49,23.717 -25.721,-20.955 -63.841,-44.048 -38.119,-23.093 -66.648,-18.682 -111.261,-8.292 -15.116,3.521 15.661,16.464 -13.305,27.535 -32.678,12.49 -11.408,-30.048 -52.658,-29.213 -29.646,0.6 -55.699,-14.21 -69.025,7.635 -18.549,30.406 -40.953,66.563 -69.919,47.762 -42.97,-27.89 -86.593,29.394 -122.824,30.565 -87.138,2.818 -159.192,98.965 -44.515,98.667 61.648,-0.16 0.709,73.827 -15.721,98.964 -5.468,8.365 16.153,14.049 8.331,38.07 -4.497,13.811 -35.838,19.914 -44.196,29.3 -9.16,10.286 19.05,19.129 0.07,38.497 -10.857,11.082 -55.591,7.972 -72.104,15.71 -50.345,23.594 -15.322,196.758 14.111,139.866 15.537,-30.031 31.353,-30.719 48.625,50.091 2.204,10.312 36.92,0.872 32.078,27.219 -5.826,31.698 -32.298,76.546 -21.544,81.179 16.094,6.935 33.003,33.447 36.162,47.874 5.387,24.605 0.709,28.633 -7.209,36.252 -9.571,9.209 6.467,26.488 6.424,45.442 -0.04,18.954 -14.692,41.276 -29.126,52.368 -10.241,7.871 37.284,11.84 22.144,29.04 -17.605,20 -39.055,67.914 -47.482,100.081 -11.923,45.51 29.407,172.468 71.623,114.559 42.397,-58.158 45.044,-10.253 72.714,35.572 9.938,16.46 48.776,1.481 79.453,5.531 30.676,4.05 64.492,52.816 83.604,29.077 23.73,-29.475 63.286,-32.299 69.541,-18.308 10.694,23.923 4.28,72.515 -20.184,97.207 -17.878,18.045 8.463,28.419 2.672,39.278 -5.79,10.858 -66.437,10.599 -68.244,42.191 -5.423,94.78 99.229,112.737 119.066,112.459 43.621,-0.611 -24.437,173.223 65.806,128.751 135.584,-66.817 -15.231,103.621 139.139,133.107 57.546,10.992 174.5452,-20.837 229.9272,22.885 70.755,55.858 21.656,72.738 59.097,60.054 200.396,-67.888 100.344,64.69 158.623,118.982 27.15,25.292 -19.207,84.839 36.246,113.047 113.06,57.512 -143.461,77.852 -90.34,21.723 35.626,-37.644 3.903,-41.6 -22.018,-50.021 -26.376,-8.57 -53.312,-2.758 -60.348,19.534 -6.86,21.736 -32.595,4.001 -46.216,-9.918 -13.531,-13.828 -35.96,4.301 -48.522,13.002 -13.536,9.376 -21.659,-15.819 -36.64,-6.841 -39.66,23.767 -26.898,43.961 -22.889,61.181 3.87,16.625 10.249,32.062 23.628,44.407 9.784,9.029 26.507,-4.274 37.132,8.685 10.625,12.959 10.17,53.914 18.223,69.028 19.932,37.41 11.956,66.514 31.44,64.479 115.381,-12.048 50.33,56.524 55.697,66.054 13.712,24.346 22.771,46.566 37.067,63.837 13.392,16.178 7.28,46.094 24.097,49.405 25.143,4.95 23.169,-41.101 39.129,-25.434 7.98,7.834 28.592,19.634 37.498,44.934 4.453,12.649 -8.245,21.906 -6.472,37.387 1.772,15.481 10.124,36.87 16.272,34.402 26.652,-10.701 76.927,-64.966 53.552,32.667 -14.873,62.125 5.064,80.24 -51.778,100.897 -35.032,12.731 -93.749,34.917 -55.087,124.957 18.543,43.184 -26.796,82.812 32.635,64.826 62.841,-19.017 -43.553,149.471 -62.697,216.359 -16.093,56.227 12.367,41.118 27.669,71.216 21.985,43.246 -22.712,58.893 17.807,97.199 54.263,51.302 115.898,-17.888 161.189,35.805 39.628,46.98 30.103,82.675 -42.398,48.75 -66.721,-31.219 -95.404,-30.891 -132.673,15.138 -25.235,31.165 -92.899,-67.195 -117.013,-4.849 -28.467,73.6 -144.088,27.829 -205.6412,67.488 -69.583,44.832 -34.597,-48.034 -89.979,-53.998 -64.882,-6.987 -183.801,-32.714 -210.381,37.005 -23.103,60.598 -96.921,23.326 -231.372,59.162 -96.066,25.604 -76.493,-115.824 -81.934,-180.634 -11.541,-137.488 -245.622,2.257 -260.923,-35.423 -22.905,-56.407 -88.331,-113.759 -110.078,-128.237 -55.152,-36.718 -76.693,-157.437 -191.03,-177.969 -119.89,-21.53 -207.481,-52.078 -305.353,-80.969 -38.944,-11.496 -145.114,-26.248 -178.309,-21.672 -33.195,4.577 -0.762,75.756 -55.781,103.388 -79.288,39.822 -124.01,69.432 -192.366,114.584 -76.252,50.367 -82.785,159.192 -138.576,89.407 -68.907,-86.191 -142.69,-77.38 -227.586,-110.341 -75.192,-29.193 -99.101,-209.163 -219.291,-148.159 -45.457,23.072 143.178,160.689 -15.28,149.712 -32.223,-2.232 -107.482,-23.123 -134.874,-9.6 -26.04,12.855 -26.138,79.19 -77.142,104.108 -50.168,24.51 -63.223,35.702 -74.636,107.945 -10.876,68.845 38.907,94.49 75.923,129.388 61.512,57.991 -58.302,121.609 27.029,164.649 46.19,23.299 33.691,122.123 36.708,159.39 4.978,61.482 -48.606,97.973 -83.613,141.96 -20.844,26.189 -51.121,59.274 -71.975,99.186 -19.98,38.242 9.211,64.954 8.71,106.608 -0.501,41.656 -61.364,68.399 -84.433,88.944 -45.534,40.556 -6.398,33.512 -56.37,93.899 -46.663,56.385 -40.528,101.871 -87.362,145.068 -57.568,53.099 -102.343,60.251 -114.222,115.949 -6.168,28.922 -50.385,73.824 -89.352,149.346 -25.319,49.072 -133.12,95.316 -182.379,115.072 -2.899,1.162 -86.664,64.766 -88.033,121.926 -0.442,18.466 37.623,34.675 24.256,138.879 -8.144,63.493 85.575,14.881 90.708,-8.541 8.627,-39.372 6.895,-150.53 55.861,-136.979 43.474,12.031 20.584,64.109 71.946,110.209 16.407,14.726 85.205,24.986 117.259,3.138 18.242,-12.435 16.303,12.153 42.113,5.598 64.978,-16.498 225.253,54.526 213.717,-17.948 -17.442,-109.573 79.702,-75.55 106.397,-165.982 17.957,-60.831 46.325,-134.466 86.71,-49.462 41.322,86.976 166.216,18.707 165.008,103.634 -1.208,84.928 77.978,70.589 120.332,50.985 36.211,-16.761 88.613,-47.244 123.725,-45.053 35.113,2.19 52.935,37.053 69.987,54.108 47.255,47.265 195.498,124.113 228.254,35.065 30.198,-82.096 109.408,-73.149 167.805,-64.423 5.337,0.799 65.215,42.707 84.674,58.183 16.761,13.329 22.049,-11.76 55.4,-10.167 123.185,5.886 37.789,-30.233 46.001,-117.518 9.514,-101.131 108.602,-47.286 163,-24.712 28.066,11.646 71.437,32.632 78.027,60.676 7.125,30.324 -22.436,59.697 -30.355,93.432 -22.336,95.154 -37.613,82.598 -108.833,22.784 -32.591,-27.372 -79.218,18.261 -70.642,39.676 8.577,21.414 11.314,35.57 70.545,50.814 38.55,9.922 17.329,81.776 20.081,120.003 2.752,38.228 28.304,69.483 65.179,101.375 31.146,26.934 31.478,9.27 126.569,86.541 64.955,52.781 140.044,54.057 163.227,129.364 26.147,84.935 88.279,123.339 175.57,64.356 54.671,-36.941 203.094,-57.669 232.136,9.839 11.78,27.384 53.66,60.213 99.604,50.888 32.011,-6.498 47.76,21.288 53.247,30.201 9.991,16.225 42.877,6.815 62.452,16.295 24.69,11.956 19.262,40.505 18.004,73.376 -1.052,27.493 28.246,9.768 19.715,31.229 -8.606,21.651 -40.24,22.456 -3.174,66.348 73.37,86.883 -162.469,90.775 -147.672,198.947 7.647,55.902 128.602,22.296 186.363,32.764 105.134,19.054 97.873,-28.471 140.493,-113.303 25.705,-51.165 -9.006,-85.787 49.355,-126.285 18.753,-13.014 -41.644,-98.295 -28.694,-100.943 119.801,-24.505 140.095,-72.584 159.551,-157.861 18.236,-79.93 100.323,-207.022 84.311,-219.942 -42.462,-34.262 -66.222,22.628 -35.35,-71.83 32.574,-99.671 9.229,-34.431 29.735,-78.214 29.876,-63.789 63.889,-109.908 123.6222,-124.338 66.521,-16.072 125.059,-77.426 149.261,-144.478 22.731,-62.973 -154.858,-35.841 -48.596,-95.566 51.514,-28.955 -44.583,-72.743 -13.43,-143.515 20.81,-47.272 -186.1712,-131.9 -76.072,-170.861 98.023,-34.688 186.226,44.946 276.054,-29.607 126.39,-104.897 239.295,10.055 150.66,127.351 -29.975,39.666 44.816,107.329 57.8,140.284 12.984,32.956 -30.67,60.868 -18.75,100.652 10.051,33.548 25.533,80.092 73.701,88.94 48.86,8.974 102.197,-0.343 120.873,13.106 36.758,26.472 -78.863,145.307 35.538,127.682 135.305,-20.847 127.45,-174.799 230.522,-254.66 83.463,-64.668 229.878,-27.191 218.438,-164.674 -6.326,-76.016 87.958,-65.004 89.33,-20.257 2.254,73.455 131.882,127.245 133.556,11.464 0.912,-63.084 89.734,-29.317 151.563,20.537 78.293,63.131 47.471,146.162 35.848,213.199 -4.269,24.627 -71.653,-44.945 -106.436,-27.727 -40.605,20.102 13.997,61.62 0.07,98.062 -13.567,35.489 -6.218,84.784 -16.282,78.856 -45.658,-26.898 -130.94,93.708 -173.653,65.494 -136.143,-89.926 -161.823,-64.784 -168.629,67.084 -0.922,17.863 3.988,72.923 28.9,95.339 23.6,21.235 79.202,-27.657 92.669,-18.501 26.933,18.31 -19.585,55.572 -15.239,88.966 5.136,39.462 36.979,40.411 47.886,117.598 13.225,93.592 100.328,185.818 69.806,204.962 -88.624,55.586 -58.328,-163.945 -125.906,-148.246 -92.17,21.412 -100.554,58.768 -34.984,150.022 39.037,54.33 23.209,122.394 56.808,182.963 17.026,30.696 40.89,68.335 58.341,108.34 11.177,25.623 31.976,22.357 27.748,65.769 -2.124,21.814 -22.433,47.324 -11.923,82.884 30.696,103.862 -15.941,186.976 -146.925,171.892 -122.945,-14.158 37.539,104.052 13.328,134.024 -51.143,63.314 -69.22,172.084 -152.92,145.694 -38.993,-12.295 -69.495,174.46 -177.82,241.106 -83.01,51.074 -147.182,102.823 -193.388,189.49 -16.9,31.697 72.052,149.794 109.193,203.668 33.535,48.642 -53.492,113.193 -47.427,152.874 6.064,39.682 27.144,60.732 45.329,110.695 26.966,74.088 104.309,118.193 170.953,109.801 52.815,-6.65 76.684,64.922 74.523,119.947 -0.663,16.875 29.036,135.184 74.069,144.415 55.429,11.362 77.355,35.197 154.975,13.008 58.466,-16.714 261.589,-37.564 296.616,13.312 18.266,26.532 65.456,0.885 92.434,13.78 85.176,40.71 93.936,-20.052 127.452,-70.646 46.867,-70.744 184.806,-59.45 151.254,-149.066 -9.447,-25.235 17.597,-45.606 9.538,-151.22 -3.938,-51.608 35.111,-82.47 59.48,-40.479 15.296,26.357 -20.749,75.58 -18.257,103.576 2.493,27.997 23.284,82.673 72.923,67.868 15.772,-4.704 35.61,-34.379 48.622,-57.557 13.011,-23.18 15.27,-46.582 23.887,-58.899 17.233,-24.633 20.123,-4.923 43.892,-31.593 28.733,-32.239 45.461,-69.167 82.616,-105.175 37.156,-36.009 96.943,-69.605 68.975,-101.507 -30.163,-34.402 -107.187,5.163 -158.935,18.895 -51.748,13.732 -91.253,20.956 -85.479,-20.16 5.851,-41.655 36.956,-119.009 64.791,-169.785 27.835,-50.775 30.303,-89.334 58.427,-145.099 57.929,-114.861 72.821,-192.888 186.013,-283.097 44.351,-35.346 66.289,-94.38 113.749,-135.342 47.46,-40.96 120.442,-63.845 147.552,-115.278 40.038,-75.956 124.85,-125.45 198.211,-135.474 108.44,-14.816 156.469,-112.606 167.597,-112.164 32.976,1.311 67.643,-2.55 126.012,-29.873 26.184,-12.256 4.183,-22.741 12.052,-45.6 4.846,-14.072 25.167,-1.255 28.93,-58.171 2.325,-35.176 60.329,-79.112 69.92,-91.076 28.532,-35.597 76.957,-52.068 105.102,-6.056 42.49,69.463 -16.09,106.695 -48.28,137.14 -48.861,46.215 -74.03,127.519 -132.001,152.284 -88.617,37.859 -156.692,155.026 -249.081,164.016 -84.342,8.207 -138.328,23.771 -193.399,68.795 -55.071,45.023 -108.461,125.029 -148.521,182.573 -44.935,64.547 -102.214,87.316 -140.519,149.995 -29.525,48.312 2.033,67.837 34.231,65.02 42.241,-3.697 79.398,-43.431 90.306,-73.185 15.534,-42.371 343.284,-162.062 343.943,-198.876 1.585,-88.683 68.94,-32.731 189.372,-153.886 53.648,-53.969 55.288,-99.105 78.272,-95.166 72.464,12.414 89.973,9.241 125.617,-19.119 66.304,-52.753 90.152,-99.54 133.643,-169.717 140.899,-227.359 215.193,-227.672 234.354,-267.574 86.739,-180.62 110.187,-147.902 135.302,-176.48 39.72,-45.197 153.756,-187.821 278.032,-201.497 84.501,-9.299 67.157,-186.807 172.17,-105.839 66.89,51.572 98.974,41.339 146.564,16.696 44.81,-23.202 98.77,-24.934 163.667,-37.714 52.999,-10.438 75.329,-46.148 107.119,-90.826 20.181,-28.362 188.676,-22.086 207.593,1.603 36.275,45.425 39.253,79.753 155.861,25.084 32.943,-15.444 24.968,47.968 66.743,50.429 188.745,11.12 364.424,-18.234 555.287,-18.582 682.342,-1.244 1734.001,592.79 2052.689,-12.532 883.319,-1677.795 633.381,-3739.269 908.963,-5615.25 14.381,-97.897 10.965,-209.7444 -40.895,-294.0138 z"
       style="display:inline;fill:#69b445;fill-opacity:1;stroke:none"
       sodipodi:nodetypes="sssssssssssssssssssssssssssssssssssssssssssssssssssssssssssssssssssssssssssssssssssssssssssssssssssssssssssssssssssssssssssssssssssssssssssssssssssssssssssssssssssssssssssssssssssssssssssssssssssssssssssssssszsssssssssssssssssssssssssssssssssssssssssssssssssssssssssssssssssssssssssssssssssssssssssssssssssssssssssssssssssssssssssssssssssssssss"
       clip-path="none" />
    <path
       style="display:inline;fill:#b4b4b4;fill-opacity:1;stroke:none;stroke-opacity:1"
       d="m 11441.872,7095.3741 c -47.505,1.6147 -74.437,87.3864 -114.621,90.909 -40.185,3.5226 -93.621,-75.2039 -131.637,-58.8357 -38.008,16.3651 -74.433,59.8377 -96.247,78.4121 -46.267,39.3957 48.269,138.2344 -9.044,168.4313 -57.313,30.1968 -266.476,-8.2483 -282.638,50.3299 -15.244,55.2475 142.944,86.9584 168.673,143.14 25.728,56.1815 -81.003,136.8336 -38.3,175.0581 79.909,71.5286 202.258,82.8077 309.359,88.3883 87.011,4.5338 165.746,-57.6646 257.431,-45.2991 75.048,10.1218 189.309,11.2077 209.644,42.7732 20.335,31.5655 -111.73,84.5937 -102.583,111.0697 19.041,55.1151 195.649,72.0876 188.464,107.5919 -7.185,35.5043 -184.881,42.6654 -172.886,71.1264 27.932,66.2747 66.508,156.6736 131.288,171.2199 167.281,37.5625 282.755,71.0755 266.46,195.5918 -8.911,68.0942 123.332,70.9438 161.308,128.1631 51.535,77.6494 50.161,179.5136 75.241,269.2698 28.153,100.753 303.524,-5.416 448.46,26.831 65.274,14.523 125.36,50.652 178.987,90.598 38.969,29.028 52.859,95.324 100.314,105.771 168.376,37.069 415.832,-83.473 447.694,199.169 7.152,63.446 -76.765,123.294 -55.243,183.406 26.304,73.471 197.275,59.804 175.671,134.792 -22.583,78.387 -29.502,119.89 -36.8,201.504 -7.298,81.614 1.598,169.089 -8.138,189.1592 -71.674,147.75 -79.816,412.811 -42.345,460.075 102.978,129.892 0.08,264.166 21.804,330.669 21.509,65.849 153.668,44.773 207.812,1.562 78.772,-62.866 34.294,-195.784 41.386,-303.166 7.092,-107.383 65.753,-189.231 88.302,-287.459 23.007,-100.223 65.935,-197.342 71.875,-300.0002 6.37,-110.094 -4.607,-218.727 -26.202,-330.682 -19.721,-102.236 -26.264,-201.916 -84.736,-288.068 -47.463,-69.932 -110.085,-128.314 -167.187,-190.625 -51.393,-56.082 -150.465,-76.799 -202.298,-132.578 -51.834,-55.779 -56.43,-146.62 -113.327,-197.1098 -84.302,-74.8089 -181.317,-133.966 -270.313,-203.125 -61.723,-47.9648 -142.119,-49.2466 -202.093,-99.4742 -59.975,-50.2276 -99.528,-149.4011 -163.532,-194.2758 -88.169,-61.817 -202.478,-89.1584 -276.053,-167.7831 -49.592,-52.9954 -72.146,-167.8388 -100.509,-193.1544 -78.369,-69.9496 -227.424,42.1371 -314.715,-16.2992 -59.187,-39.6219 -46.539,-137.8638 -91.535,-193.0758 -31.373,-38.4968 -83.621,-42.8084 -118.973,-89.6771 -35.353,-46.8688 -22.437,-97.798 -54.753,-131.7173 -64.632,-67.8385 -84.803,-49.9598 -105.571,-89.5431 -41.537,-79.1667 30.078,-164.0625 30.078,-164.0625 -7.669,-14.6163 -90.922,-142.639 -197.972,-139.0004 z"
       id="grey_mountains"
       sodipodi:nodetypes="sssssssssssssssssssssssssssssssssssssssssssssssss" />
    <path
       style="display:inline;fill:#747551;fill-opacity:1;stroke:none;stroke-width:1;stroke-opacity:1"
       d="m 12333.459,8000.331 c 0,0 102.658,29.9252 142.556,48.5327 31.139,14.5221 61.618,31.4959 88.388,53.0329 20.908,16.8204 35.854,37.8003 57.196,54.0652 16.248,12.3824 37.587,21.8642 56.286,30.0933 27.186,11.9652 57.521,14.2464 83.384,28.8546 36.912,20.8486 69.92,51.6154 102.549,78.6793 22.939,19.0255 41.407,41.3052 64.284,60.404 26.099,21.7883 50.861,51.4477 81.96,65.1864 29.252,12.9227 57.528,6.6351 87.985,16.3832 36.399,11.6497 64.712,43.2207 101.648,53.0331 9.262,2.4602 20.156,-3.1831 28.726,1.1049 15.688,7.8505 30.508,23.0616 39.786,37.9499 14.38,23.0737 19.778,50.919 27.61,76.9549 4.936,16.4099 0.718,35.1893 7.734,50.8233 9.21,20.5208 29.823,33.7648 43.09,51.9282 25.564,34.9988 33.957,76.5254 52.756,115.043 3.136,6.4264 4.021,17.2891 10.22,20.854 16.968,9.7588 41.23,-0.3993 60.51,-3.7836 15.911,-2.7929 29.406,-15.8336 45.367,-18.325 16.113,-2.5154 38.723,-6.0852 50.176,5.5244 5.199,5.2694 9.081,25.8929 10.504,33.1572 3.249,16.5818 -4.651,28.1092 4.144,42.5368 6.101,10.0085 18.137,16.2245 27.345,23.4782 19.26,15.1726 36.691,29.551 60.215,36.46 11.661,3.4248 29.107,-5.6014 40.603,-1.6572 15.886,5.4511 28.054,22.222 32.593,38.3938 3.087,10.998 -8.752,21.1484 -6.355,32.3169 3.388,15.7867 18.568,20.5301 31.767,29.8311 25.316,17.8404 95.607,-0.096 100.771,30.4414 1.357,8.0243 -17.311,28.1539 -21.576,34.518 -4.264,6.3643 -13.46,13.8068 -20.895,19.1135 -7.435,5.3067 -13.888,11.6024 -22.041,16.4541 -8.155,4.8519 -16.055,9.8222 -24.43,13.2591 -5.58,2.2903 -13.286,4.8881 -15.117,11.2009 -1.855,6.3975 -5.44,11.065 -10.489,15.0322 -5.048,3.9672 -16.466,13.1726 -21.9,15.388 -5.435,2.2152 -9.167,-4.6314 -15.147,-5.4232 -56.121,-7.4323 -72.804,-87.7938 -117.224,-122.8894 -52.288,-41.3128 -123.496,-55.7925 -172.657,-100.7813 -13.094,-11.9815 -22.031,-28 -30.803,-43.4279 -16.625,-29.2393 -25.528,-62.3274 -40.88,-92.2553 -11.621,-22.6559 -20.335,-48.2096 -38.671,-65.8769 -81.829,-78.847 -185.726,-136.0326 -270.896,-203.9087 -48.252,-38.4543 -113.473,-48.8291 -168.006,-77.6912 -12.338,-6.5295 -24.743,-13.1669 -35.908,-21.5445 -13.483,-10.1163 -25.988,-21.6851 -37.102,-34.358 -26.297,-29.9876 -44.642,-66.1818 -69.14,-97.6563 -15.826,-20.3343 -30.413,-42.2781 -50.196,-58.7891 -33.597,-28.0401 -75.056,-45.0656 -113.476,-66.0156 -34.916,-19.0394 -72.733,-32.8522 -106.289,-54.1975 -26.681,-16.9726 -54.221,-34.318 -74.855,-58.2811 -21.438,-24.8976 -50.764,-77.3333 -52.756,-85.0737 -4.306,-16.7347 -4.485,-22.5024 -3.344,-28.093 z"
       id="vorbergland"
       sodipodi:nodetypes="ssssssssssssssssssssssssssssssssssssssssssssssssssssss" />
    <path
       style="display:inline;fill:#4f4c1a;fill-opacity:1"
       d="m 13400.147,8954.1993 2.636,4.9316 c 0,0 4.669,8.5377 6.885,11.7676 2.216,3.2299 2.806,3.7559 6.152,7.7148 3.346,3.9589 10.026,12.3581 14.161,15.8203 4.135,3.4622 2.808,1.4894 9.467,5.8481 6.659,4.3587 21.236,15.6735 30.108,20.8541 8.872,5.1806 14.341,6.9945 22.511,10.9104 8.17,3.9159 26.517,12.5677 26.517,12.5677 l 8.174,-1.3521 5.859,-0.6348 7.276,-0.9277 5.957,-1.1231 3.369,-1.709 2.832,-2.2461 2.734,-3.5644 2.002,-4.0039 0.684,-2.832 v -3.9063 l -0.1,-4.4434 -0.732,-3.8085 -1.172,-3.5645 -1.953,-3.3203 -2.198,-4.6387 -1.367,-4.1504 -1.025,-6.2011 -1.807,-5.42 -3.418,-6.3965 -1.367,-5.5664 -1.318,-5.0781 -1.612,-11.4746 0.684,-4.6387 1.562,-6.7382 2.051,-3.9551 2.002,-4.2481 2.246,-4.4922 1.612,-4.8828 1.855,-7.373 0.147,-3.6621 -0.245,-6.7383 -0.537,-6.543 1.172,-7.9101 2.246,-5.2735 2.344,-13.1836 -0.293,-5.664 -1.367,-7.3243 -1.66,-6.5429 -3.125,-6.4453 -2.051,-4.7852 -2.539,-5.0781 -2.272,-5.7341 -1.727,-1.7954 h -1.657 l -2.555,1.8645 -2.279,2.4168 -2.831,3.3146 -2.762,3.7979 -3.038,2.6241 -5.179,2.9002 -6.699,0.6906 -7.526,0.4833 -3.591,0.4834 -2.9,0.6215 -3.039,2.2787 -3.452,3.3146 -5.134,3.9307 -3.515,1.8555 -4.59,2.3437 -4.004,1.9531 -3.418,1.9532 -0.195,4.1992 0.879,4.6875 1.367,5.664 0.683,4.6875 -0.39,3.418 -0.684,4.8828 -1.367,3.711 -1.563,4.5898 -1.464,2.6367 -2.149,2.2461 -3.125,1.1719 -4.394,1.1719 -3.125,0.098 -7.911,0.586 h -4.296 l -3.907,0.1953 -3.808,0.4883 -3.223,0.5859 -2.441,1.0742 -3.516,2.4414 -1.855,3.2227 -0.586,2.832 -1.172,4.2969 -0.782,4.3945 -0.292,5.5664 -1.27,3.711 -2.051,2.0507 -2.539,2.2461 -2.441,1.8555 -2.832,1.3672 -6.739,1.7578 z"
       id="vorber_marsh"
       sodipodi:nodetypes="cczzzzzzcccccccccccccccccccccccccccccccccccccccccccccccccccccccccccccccccccccccccccccccccccccccccccccc" />
    <path
       style="display:inline;fill:#009300;fill-opacity:1;stroke:none;stroke-width:1;stroke-opacity:1"
       d="m 12408.515,7820.0215 c -0.804,1.8298 -1.765,3.7659 -2.865,5.8015 -1.1,2.0355 -4.587,2.9985 -5.945,5.2253 -1.359,2.2268 -5.182,2.6903 -6.762,5.094 -1.58,2.4036 -4.725,4.2084 -6.489,6.7743 -1.763,2.566 -0.873,6.6741 -2.781,9.3879 -1.908,2.7136 -2.514,6.181 -4.528,9.028 -2.016,2.8468 -5.834,5.073 -7.918,8.0385 -2.085,2.9655 -3.708,6.9633 -5.824,10.0331 -2.117,3.0696 -2.469,6.875 -3.126,10.6164 -0.592,3.3665 1.454,7.4674 0.561,11.2541 -0.88,3.7351 -3.856,10.2135 -5.84,13.5083 -1.984,3.2948 -5.384,5.298 -7.248,8.6388 -1.864,3.3408 -4.508,5.9626 -6.215,9.3349 -1.706,3.3723 -3.325,6.3424 -4.836,9.7316 -1.51,3.3891 -3.942,5.0649 -5.918,8.1031 -1.955,3.0046 -3.908,6.4081 -4.747,9.8837 -0.732,3.0339 -4.956,4.2329 -8.555,6.3439 -4.058,2.3798 -11.596,3.0417 -11.582,7.4929 0.01,4.4513 8.857,11.8784 11.786,15.6149 2.474,3.1547 8.248,12.181 10.006,14.7603 2.501,3.6721 2.865,10.5364 7.092,11.9043 12.221,3.9545 28.18,-4.6431 40.549,-1.1818 13.32,3.7271 27.216,8.7675 40.876,14.5242 13.659,5.7566 29.705,8.7768 43.317,14.4018 13.222,5.4634 26.45,11.0244 39.063,17.7734 11.088,5.933 21.5,13.0609 32.053,19.9002 10.072,6.5271 20.528,12.5798 29.831,20.1635 12.767,10.4084 23.46,23.1316 35.355,34.5267 7.573,7.2546 14.953,14.732 22.926,21.5446 5.139,4.3907 10.122,9.1303 16.02,12.4296 40.662,22.7429 90.651,25.6237 130.807,49.2479 54.304,31.947 96.697,80.8096 144.141,122.2656 26.383,23.0528 46.918,58.6932 78.515,73.8281 33.785,16.1828 70.62,10.9232 105.859,23.6329 33.821,12.1983 61.253,36.7591 95.172,48.6842 13.654,4.8006 27.298,-0.896 39.377,7.0786 28.773,18.9971 40.012,52.6294 52.756,84.6668 9.741,24.4886 8.889,54.2742 20.508,77.9296 10.996,22.387 34.377,37.9856 46.875,59.5703 13.868,23.9527 22.858,48.8265 30.465,75.4381 4.501,15.7442 12.308,30.5751 20.193,44.7167 4.315,7.7365 12.935,13.2701 22.414,11.9043 18.658,-2.689 37.834,-3.0224 55.834,-8.6215 10.906,-3.3921 18.947,-13.8521 30.079,-16.4063 18.423,-4.2273 40.217,-8.9289 54.155,3.8392 17.733,16.2452 1.124,49.0588 12.25,70.3796 8.356,16.0119 25.695,25.4943 39.844,36.7188 13.072,10.3695 25.362,23.5471 41.407,28.125 12.281,3.504 23.684,-2.1827 36.072,0.9233 15.683,3.9321 30.411,9.8777 40.967,22.1236 4.309,4.9999 4.389,11.7643 4.108,18.3593 -0.418,9.774 -11.972,17.0954 -10.243,26.7243 2.883,16.0525 23.047,27.0392 37.043,35.4128 26.361,15.7719 55.701,27.0768 79.357,28.8787 7.811,0.5949 11.132,5.7845 18.671,0.035 5.481,-4.1802 9.497,-14.0902 12.264,-25.0544 3,-11.8938 14.692,-16.4472 19.488,-16.9494 11.018,-1.1542 13.813,-6.3244 17.85,-14.1483 4.036,-7.824 7.851,-13.7119 7.534,-21.7699 -0.303,-7.6712 -6.988,-12.9912 -14.567,-20.2128 -7.579,-7.2214 -12.632,-15.6612 -14.164,-18.439 -1.905,-3.4547 -0.961,-7.8851 -1.051,-11.906 -0.09,-4.021 3.487,-9.8144 4.054,-13.6551 1.132,-7.6813 5.062,-14.5823 9.544,-19.8043 5.989,-6.979 14.29,-13.0705 19.38,-20.4714 2.544,-3.7004 1.446,-9.6534 3.64,-13.399 2.192,-3.7457 7.674,-5.2841 9.018,-9.2706 5.682,-16.8603 21.355,-25.2091 23.608,-26.4544 1.512,-0.8358 15.704,-12.3407 18.186,-26.1739 1.029,-5.7407 0.12,-13.9117 -4.183,-21.3709 -4.56,-7.9071 -14.129,-17.5172 -17.672,-26.2032 -3.543,-8.6859 -2.164,-16.0334 -3.057,-23.282 -0.912,-7.3938 -1.85,-12.8792 -2.327,-15.6456 -1.488,-8.6232 -2.651,-16.2323 -4.921,-20.3078 -2.272,-4.0753 -2.012,-8.6128 -6.791,-19.4636 -8.995,-20.4229 -8.673,-12.2166 -20.029,-23.2468 -8.92,-8.6634 -10.035,-5.8973 -19.756,-12.012 -19.015,-11.9612 -23.295,-6.8497 -30.802,-13.6492 -2.756,-2.4956 -8.654,-3.3513 -11.726,-13.519 -3.074,-10.1678 -3.322,-29.6476 -5.271,-41.7703 -2.073,-12.892 -5.116,-29.5045 -5.341,-44.4143 -0.226,-14.9097 2.366,-28.1166 3.833,-34.7494 3.327,-15.0512 -4.736,-27.052 -4.312,-36.1431 0.428,-9.1645 4.037,-16.0449 6.879,-27.3352 4.905,-19.4915 7.474,-41.028 -17.798,-50.1237 -8.014,-2.8846 -34.18,-16.8183 -55.385,-25.0959 -15.795,-6.1656 -37.844,-9.106 -52.179,-17.6831 -19.488,-11.6608 -41.556,-14.8909 -50.949,-29.1886 -8.143,-12.3944 -4.039,-9.3354 -7.784,-22.8054 -2.279,-8.1948 0.505,-12.879 -12.359,-22.904 -9.408,-7.3316 -14.354,-12.91 -26.113,-19.6866 -13.368,-7.7036 -35.395,-7.5358 -47.809,-10.0327 -14.131,-2.842 -29.159,-9.3105 -35.071,-15.7229 -5.911,-6.4124 -2.916,-11.3531 -18.652,-37.276 -26.111,-43.0133 -11.564,-39.8613 -43.583,-54.9361 -27.612,-13 -30.878,-5.0236 -48.5,-24.3054 -13.774,-15.0725 -30.168,-22.1156 -38.402,-25.3873 -9.9,-3.9333 -44.807,-22.7308 -74.678,-26.1749 -35.696,-4.1158 -47.537,-20.784 -77.35,-19.7268 -22.944,0.8136 -40.928,8.9026 -59.907,17.358 -18.979,8.4554 -38.952,17.277 -58.841,28.931 -13.199,7.7335 -33.044,19.5182 -46.923,25.9488 -11.245,5.2106 -22.347,8.3236 -39.157,10.2512 -23.315,2.6732 -42.09,3.1388 -64.899,-2.8016 -34.028,-8.8624 -60.953,-25.878 -99.217,-24.0234 -12.042,0.5836 -26.639,-0.052 -38.887,-0.2958 -12.248,-0.2438 -26.248,-1.6588 -38.264,-2.6338 -14.479,-1.175 -27.648,-8.9266 -46.452,-14.9479 -19.841,-6.3535 -39.249,-15.8065 -62.748,-24.9233 -25.596,-9.9307 -35.653,-14.944 -46.569,-24.3902 -18.628,-16.1196 -27.019,-35.142 -37.207,-53.5337 -10.188,-18.3917 -22.175,-36.1529 -30.805,-60.6875 -10.022,-28.4881 13.022,-69.2737 -7.947,-91.0054 -22.935,-23.7686 -66.279,-11.452 -84.515,-19.5932 -11.342,-5.064 -23.065,-9.8435 -31.517,-15.0334 -8.453,-5.1898 -16.763,-8.2509 -22.843,-11.05 -6.08,-2.799 -9.126,-9.6329 -14.072,-7.5245 -4.945,2.1084 1.615,6.5421 -2.218,15.2697 z"
       id="reikwald_forest"
       sodipodi:nodetypes="ssssssssssssssssssssssssssssssssssssssssssssssssssssssssssssssssssssssssssssssssssssssssssssssssssssssssssssssssssssssss" />
    <path
       style="display:inline;fill:#54570a;fill-opacity:1;stroke-width:1"
       d="m 13100.391,8128.5157 13.672,-10.5468 11.718,-8.9844 12.11,-5.8594 7.422,-5.0782 10.546,-5.078 12.11,-4.2969 11.328,-3.9063 10.937,-5.4688 15.625,-7.0312 10.938,-3.5156 7.812,-3.125 7.813,-1.5626 11.719,-0.3905 9.374,0.3905 11.328,2.7344 10.938,3.5156 10.938,5.8595 c 0,0 -1.516,6.7584 -2.736,10.5469 -1.22,3.7886 -2.452,7.6978 -4.686,12.1094 -2.235,4.4116 -5.987,10.2458 -8.984,14.0625 -2.998,3.8167 -4.739,6.3019 -8.594,8.9843 -3.854,2.6824 -9.7,4.1008 -14.453,6.25 -4.753,2.1492 -9.303,4.6868 -14.063,6.6406 -4.76,1.9539 -9.88,3.7955 -14.453,5.0782 -4.573,1.2826 -8.98,2.0306 -12.891,2.7344 -3.91,0.7037 -6.316,1.0266 -10.546,1.5625 -4.231,0.5359 -8.4,1.0123 -14.844,1.5625 -6.444,0.5503 -23.828,1.5624 -23.828,1.5624 l -19.142,-3.5156 -8.593,-2.7344 -7.812,-4.2968 z"
       id="furdienst"
       sodipodi:nodetypes="cccccccccccccccccczzzzzzzzzzccccc" />
    <path
       style="display:inline;fill:#80eb59;fill-opacity:1;stroke:none;stroke-width:1;stroke-opacity:1"
       d="m 13507.396,8333.9167 c -7.319,-6.5512 -15.802,-12.8896 -25.412,-14.9155 -17.232,-3.6321 -36.552,-1.4348 -52.48,6.0767 -18.258,8.6101 -39.438,22.2412 -43.642,41.9845 -3.062,14.3812 18.915,25.7096 13.81,39.4985 -2.23,6.0243 -8.782,7.026 -15.191,7.4578 -11.507,0.775 -20.949,-12.8387 -31.765,-8.839 -16.324,6.0364 -31.795,28.9006 -25.964,45.2991 2.577,7.25 10.289,6.5165 16.297,11.3248 11.404,9.1273 8.052,21.402 25.412,27.0689 8.46,2.7619 18.347,0.3355 26.516,3.867 8.392,3.6276 9.789,6.4292 7.181,15.1917 -3.068,10.3089 -19.042,9.1133 -23.753,18.7827 -2.097,4.304 -1.715,14.5776 1.933,17.6776 7.82,6.6448 20.671,-3.7824 29.002,2.2097 20.448,14.7067 20.569,38.896 12.362,62.7085 -3.184,9.2399 -18.5,14.9827 -20.372,24.575 -1.988,10.1868 5.414,21.3773 13.258,28.1737 19.502,16.8973 50.441,33.1227 74.025,22.6496 14.681,-6.5197 21.361,-27.6044 20.44,-43.6417 -0.584,-10.1528 -18.023,-15.9939 -16.02,-25.9642 3.613,-17.9853 41.859,-8.8772 46.699,-26.572 1.805,-6.6005 -12.012,-17.6421 -10.239,-24.2513 3.073,-11.4544 17.215,-18.136 28.725,-20.9923 18.603,-4.6162 40.954,18.9199 56.9,8.2866 7.432,-4.9555 9.466,-17.4938 6.63,-25.9642 -8.61,-25.7164 -30.44,-19.9844 -45.951,-42.2296 -5.329,-7.6424 -20.184,-28.1857 -26.417,-35.1101 -4.466,-4.9607 -18.95,-9.4555 -23.699,-14.1457 -9.553,-9.4352 -13.007,-17.2418 -11.656,-30.601 1.271,-12.5681 22.653,-17.7513 22.649,-30.3834 0,-16.3151 -17.122,-28.3404 -29.278,-39.2224 z"
       id="hagercrybs"
       sodipodi:nodetypes="ssssssssssssssssssssssssssssssss" />
    <path
       style="display:inline;fill:#80eb80;fill-opacity:1;stroke:none;stroke-width:1;stroke-opacity:1"
       d="m 13177.875,8158.0145 c -15.517,-10.7957 -30.264,-13.298 -43.953,-16.6504 -13.689,-3.3524 -24.689,-11.2352 -32.409,-9.7992 -7.72,1.436 -21.352,4.6676 -28.482,10.6972 -7.129,6.0296 -5.578,26.8229 -5.844,37.4681 -0.266,10.6451 -0.244,23.8167 -2.284,35.9664 -2.04,12.1497 -5.089,28.932 -4.42,45.2992 0.67,16.3672 1.388,39.1749 9.392,51.928 8.004,12.7531 18.212,15.4456 30.383,22.0972 12.171,6.6516 27.637,14.2457 42.537,16.5728 14.9,2.3271 31.059,-0.1133 45.574,-0.2763 14.516,-0.1629 37.549,2.172 49.72,1.3811 6.085,-0.3955 22.284,-8.6937 25.582,-16.8872 3.298,-8.1935 -6.304,-16.2821 -4.313,-21.7827 1.991,-5.5004 -5.145,-16.6752 -3.648,-24.3164 1.496,-7.6412 6.377,-13.9586 6.437,-19.6882 0.12,-11.4591 -12.282,-33.656 -15.356,-43.6312 -3.073,-9.9752 -16.764,-18.5487 -25.53,-29.9316 -8.767,-11.383 -27.868,-27.6511 -43.386,-38.4468 z"
       id="skaag_hills"
       sodipodi:nodetypes="zzzzzzzzzzzssssszzz" />
  </g>
  <g
     inkscape:groupmode="layer"
     id="layer2"
     inkscape:label="River">
    <path
       style="display:inline;fill:#0000f6;fill-opacity:1"
       d="m 12879.149,8569.3883 c -1.745,-0.078 -3.846,-0.055 -3.729,-3.0384 0.117,-2.9832 7.912,-4.4409 10.773,-7.4578 2.861,-3.0169 5.402,-7.5426 6.214,-10.0818 0.812,-2.5392 -0.77,-1.6762 0.277,-4.1432 1.047,-2.467 5.554,-6.6479 8.01,-8.8388 2.456,-2.1909 3.663,-3.1341 6.353,-4.5575 2.69,-1.4234 6.465,-2.8083 9.805,-3.5908 3.34,-0.7825 6.376,-0.7124 10.082,-1.1049 3.706,-0.3925 9.092,-0.1523 12.153,-1.2429 3.061,-1.0906 3.269,-2.9406 6.077,-4.0051 2.808,-1.0645 5.176,-1.1141 10.634,-1.5192 5.458,-0.4051 17.03,-0.5415 22.097,-0.1381 5.067,0.4034 5.794,1.1225 8.287,1.3811 2.493,0.2586 4.559,0.5054 6.629,0.2762 2.07,-0.2292 3.148,-1.1312 5.662,-1.5192 2.514,-0.388 6.079,0.3566 9.392,-0.4143 3.313,-0.7709 7.109,-2.7306 10.081,-4.4194 2.972,-1.6888 4.872,-4.215 7.734,-5.5243 2.862,-1.3093 5.707,-1.3396 9.115,-2.2097 3.408,-0.8701 7.385,-1.8471 11.325,-3.0384 3.94,-1.1913 8.333,-2.7844 12.292,-4.1432 3.959,-1.3588 8.199,-2.5354 11.463,-4.0051 3.264,-1.4697 5.392,-2.7234 8.148,-4.5575 2.756,-1.8341 6.073,-4.4526 8.286,-6.491 2.213,-2.0384 3.54,-3.2205 5.11,-5.5243 1.57,-2.3038 2.624,-5.5009 4.005,-8.2864 1.381,-2.7855 3.043,-5.89 4.282,-8.4245 1.239,-2.5345 2.005,-4.4173 3.176,-6.7672 1.171,-2.3499 2.713,-5.3979 3.867,-7.3197 1.154,-1.9218 1.704,-3.0666 2.9,-4.2813 1.196,-1.2147 2.067,-1.8808 4.144,-2.9002 2.077,-1.0194 6.009,-1.6519 8.424,-2.6241 2.415,-0.9722 4.181,-1.8335 6.077,-3.0383 1.896,-1.2048 3.423,-2.9216 5.248,-4.1432 1.825,-1.2216 4.136,-2.383 5.662,-3.1765 1.526,-0.7935 2.095,-1.012 3.453,-1.6573 1.358,-0.6453 3.245,-1.4457 4.695,-2.2097 1.45,-0.764 2.806,-1.4635 4.006,-2.3478 1.2,-0.8843 1.552,-2.1669 3.176,-2.9002 1.624,-0.7333 4.072,-0.3733 6.353,-0.6906 2.281,-0.3173 4.785,-0.7172 7.32,-1.2429 2.535,-0.5257 5.498,-1.1323 7.872,-1.9335 2.374,-0.8012 4.344,-1.6745 6.353,-2.7622 2.009,-1.0877 4.018,-2.2803 5.662,-3.7288 1.644,-1.4485 2.131,-2.5876 4.143,-4.8338 2.012,-2.2462 6.003,-6.5626 8.01,-8.5626 2.007,-2 2.2,-1.9659 3.867,-3.5908 1.667,-1.6249 4.23,-4.6019 6.077,-6.2148 1.847,-1.6129 3.41,-2.4574 4.834,-3.5908 1.424,-1.1334 2.597,-2.0198 3.729,-3.1764 1.132,-1.1566 1.569,-1.4561 3.038,-3.7289 1.469,-2.2728 3.376,-7.3044 5.11,-10.2199 1.734,-2.9155 3.726,-5.3654 5.11,-7.3197 1.384,-1.9543 1.696,-2.8978 3.176,-4.4194 1.48,-1.5216 3.816,-3.299 5.801,-4.4194 1.985,-1.1204 3.749,-1.2207 5.938,-2.3478 2.189,-1.1271 4.761,-2.8989 7.044,-4.5575 2.283,-1.6586 5.326,-3.197 6.629,-5.3862 1.303,-2.1892 1.365,-3.7876 1.243,-6.6291 -0.122,-2.8415 -1.591,-7.2044 -2.762,-9.9437 -1.171,-2.7393 -2.549,-4.1219 -3.867,-6.491 -1.318,-2.3691 -3.145,-5.1384 -4.005,-7.734 -0.86,-2.5956 -1.035,-5.0325 -1.243,-7.5959 -0.208,-2.5634 -0.39,-5.4296 0,-7.734 0.39,-2.3044 0.983,-3.5602 2.071,-5.9386 1.088,-2.3784 3.636,-5.7891 4.696,-8.1483 1.06,-2.3592 1.639,-3.3674 1.934,-5.8004 0.295,-2.433 -0.188,-5.3727 -0.691,-8.5627 -0.503,-3.19 -1.348,-7.4962 -2.486,-10.4961 -1.138,-2.9999 -2.167,-4.3539 -4.005,-7.4577 -1.838,-3.1038 -5.454,-7.6408 -7.182,-11.0486 -1.728,-3.4078 -2.545,-6.3918 -3.452,-9.115 -0.907,-2.7232 -0.843,-5.0995 -2.072,-7.1816 -1.229,-2.0821 -3.105,-3.4172 -4.972,-4.9718 -1.867,-1.5546 -3.575,-2.3425 -6.214,-4.2813 -2.639,-1.9388 -6.899,-5.0042 -9.53,-7.4578 -2.631,-2.4536 -4.118,-4.0693 -6.353,-7.0435 -2.235,-2.9742 -4.548,-8.1112 -6.767,-10.9104 -2.219,-2.7992 -3.452,-3.8259 -6.077,-6.0767 -2.625,-2.2508 -6.165,-4.949 -9.805,-7.1815 -3.64,-2.2325 -8.802,-4.3555 -12.016,-6.0767 -3.214,-1.7212 -4.314,-2.3195 -7.319,-4.1433 -3.005,-1.8238 -6.918,-5.2504 -10.634,-6.9053 -3.716,-1.6549 -7.722,-2.3395 -11.325,-3.0383 -3.603,-0.6988 -6.991,-0.6098 -10.22,-1.243 -3.229,-0.6332 -6.185,-1.2357 -9.115,-2.4859 -2.93,-1.2502 -5.773,-3.5519 -8.287,-4.9719 -2.514,-1.42 -4.607,-2.8637 -6.767,-3.5907 -2.16,-0.727 -3.243,-0.7122 -5.938,-0.9668 -2.695,-0.2546 -7.734,-0.2426 -10.22,-0.2762 -2.486,-0.034 -2.955,-0.2366 -4.012,-3.3203 -1.057,-3.0837 7.42,-4.9107 11.055,-5.7948 3.635,-0.8841 5.34,0.99 7.458,1.3811 2.118,0.3911 2.297,-0.1719 5.248,0.9668 2.951,1.1387 8.594,5.786 11.601,7.1815 3.007,1.3955 3.707,1.3236 5.939,1.9335 2.232,0.6099 5.102,1.2992 7.457,1.6573 2.355,0.3581 4.763,0.2503 6.629,0.5524 1.866,0.3021 3.038,0.7828 4.558,1.1049 1.52,0.3221 2.528,0.1439 4.557,0.8286 2.029,0.6847 4.61,2.1358 7.32,3.7289 2.71,1.5931 6.238,4.1891 8.839,5.9386 2.601,1.7495 4.74,3.4326 6.767,4.5575 2.027,1.1249 3.092,1.2423 5.248,2.3478 2.156,1.1055 4.51,2.6037 7.596,4.4194 3.086,1.8157 8.08,4.1912 10.911,6.4911 2.831,2.2999 4.194,4.0338 6.214,6.7672 2.02,2.7334 3.582,6.6468 5.663,9.6675 2.081,3.0207 4.174,5.8722 6.767,8.4245 2.593,2.5523 5.82,4.6745 8.701,6.7672 2.881,2.0927 5.959,3.2297 8.562,5.8005 2.603,2.5708 4.737,5.9914 6.629,9.5294 1.892,3.538 2.491,7.4912 4.558,11.6009 2.067,4.1097 6.112,9.2093 8.01,12.844 1.898,3.6347 2.643,5.4283 3.729,8.7007 1.086,3.2724 2,7.7733 2.624,10.9104 0.624,3.1371 1.294,4.9733 1.243,7.8721 -0.05,2.8988 -0.9,6.5498 -1.795,9.2532 -0.895,2.7034 -2.261,4.9782 -3.315,6.9053 -1.054,1.9271 -2.273,3.0029 -2.9,4.6957 -0.627,1.6928 -0.666,3.1719 -0.829,5.248 -0.163,2.0761 -0.987,3.191 0,7.1816 0.987,3.9906 6.656,12.0108 8.149,15.4679 1.493,3.4571 1.368,2.5456 1.657,4.8338 0.289,2.2882 -0.416,6.3768 -0.691,8.7007 -0.275,2.3239 -0.207,3.3713 -0.828,5.2481 -0.621,1.8768 -1.987,4.2692 -3.039,5.8004 -1.052,1.5312 -1.798,2.3289 -3.038,3.4527 -1.24,1.1238 -2.785,2.1554 -4.419,3.1765 -1.634,1.0211 -3.54,2.0704 -5.387,2.9002 -1.847,0.8298 -3.752,1.0895 -5.662,2.0716 -1.91,0.9821 -4.111,2.3564 -5.662,3.867 -1.551,1.5106 -2.195,2.8851 -3.591,4.9718 -1.396,2.0867 -3.247,5.2245 -4.696,7.5959 -1.449,2.3714 -2.716,4.3959 -4.005,6.6291 -1.289,2.2332 -2.468,4.8156 -3.729,6.7673 -1.261,1.9517 -2.411,3.4516 -3.729,4.9718 -1.318,1.5202 -2.482,2.8746 -4.143,4.1432 -1.661,1.2686 -4.171,2.2901 -5.8,3.3146 -1.629,1.0245 -2.577,1.2412 -4.005,2.7621 -1.428,1.5209 -2.501,5.025 -3.937,6.5601 -1.436,1.5351 -2.539,1.7079 -4.074,2.8312 -1.535,1.1233 -3.087,2.4133 -5.11,3.936 -2.023,1.5227 -4.641,3.6486 -7.043,5.179 -2.402,1.5304 -4.802,2.8753 -7.32,4.0051 -2.518,1.1298 -5.305,2.1098 -7.734,2.7622 -2.429,0.6524 -4.809,0.9273 -6.767,1.2429 -1.958,0.3156 -3.038,0.072 -4.972,0.6906 -1.934,0.6185 -4.588,2.1833 -6.353,3.3145 -1.765,1.1312 -2.493,2.1802 -4.281,3.3146 -1.788,1.1344 -4.258,2.2542 -6.491,3.3146 -2.233,1.0604 -4.748,2.3199 -6.905,3.0383 -2.157,0.7184 -3.708,0.6266 -5.939,1.3811 -2.231,0.7545 -5.159,2.2572 -7.321,3.303 -2.162,1.0458 -4.206,1.672 -5.664,2.9297 -1.458,1.2577 -1.955,2.5122 -3.028,4.1992 -1.073,1.687 -2.4,4.1116 -3.32,5.9571 -0.92,1.8455 -1.223,3.1104 -2.246,5.0781 -1.023,1.9677 -2.645,4.1852 -4.004,6.6406 -1.359,2.4554 -2.867,5.849 -4.101,8.1055 -1.234,2.2565 -2.069,3.5957 -3.223,5.4687 -1.154,1.873 -2.294,4.0619 -3.711,5.7618 -1.417,1.6999 -3.244,3.1828 -4.688,4.3945 -1.444,1.2117 -2.603,2.0023 -3.906,2.9297 -1.303,0.9274 -2.363,1.7431 -3.906,2.6367 -1.543,0.8936 -3.353,1.644 -5.371,2.6367 -2.018,0.9927 -4.219,2.264 -6.738,3.3203 -2.519,1.0563 -5.325,2.016 -8.379,2.9296 -3.054,0.9136 -6.88,1.5292 -9.943,2.486 -3.063,0.9568 -6.059,2.0115 -8.425,3.1764 -2.366,1.1649 -3.887,2.3019 -5.8,3.5908 -1.913,1.2889 -2.97,2.6663 -5.663,4.1432 -2.693,1.4769 -7.674,3.3395 -10.634,4.1432 -2.96,0.8037 -3.475,0.5533 -6.905,1.1048 -3.43,0.5515 -10.138,1.86 -13.673,2.2098 -3.535,0.3498 -4.382,0.4322 -7.458,0.2762 -3.076,-0.156 -6.641,-1.2639 -10.91,-1.5192 -4.269,-0.2553 -10.796,0.2084 -14.64,0.2762 -3.844,0.068 -5.769,-0.1276 -8.424,0.1381 -2.655,0.2657 -5.272,0.8601 -7.458,1.3811 -2.186,0.521 -3.18,1.0546 -5.662,1.6573 -2.482,0.6027 -6.143,1.3115 -9.253,1.7954 -3.11,0.4839 -6.538,0.7331 -9.392,1.1048 -2.854,0.3717 -5.594,0.7785 -7.734,1.1049 -2.14,0.3264 -3.58,0.1987 -5.11,0.8286 -1.53,0.6299 -2.341,1.5962 -3.867,2.7621 -1.526,1.1659 -3.83,2.6115 -5.248,4.2813 -1.418,1.6698 -1.817,3.1539 -3.176,5.5243 -1.359,2.3704 -3.514,6.4374 -4.972,8.7007 -1.458,2.2633 -1.811,3.0462 -3.591,4.9719 -1.78,1.9257 -5.292,4.6758 -7.319,6.2148 -2.027,1.539 -2.951,3.2542 -4.696,3.1765 z"
       id="river_bogen"
       sodipodi:nodetypes="zzzzzzzzzzzzzzzzzzzzzzzzzzzzzzzzzzzzzzzzzzzzzzzzzzzzzzzzzzzzzzzzzzzzzzzzzzzzzzzzzzzzzzzzzzzzzzzzzzzzzzzzzzzzzzzzzzzzzzzzzzzzzzzzzzzzzzzzzzzzzzzzzzzzzzzzzzzzzzzzzzzzzzzzzzzzzzzzzzzzzzzzzzzzzzzzz" />
    <path
       style="display:inline;fill:#0000f0;fill-opacity:1"
       d="m 12408.496,7788.0368 c 1.261,2.2137 2.025,5.7662 2.246,7.6172 0.221,1.851 1.119,6.2743 0.977,9.0332 -0.142,2.7589 -0.842,4.9642 -1.563,7.3242 -0.721,2.36 -1.732,4.7776 -2.734,6.7872 -1.002,2.0095 -1.962,3.6473 -3.174,5.2734 -1.212,1.626 -2.249,2.8032 -4.053,4.4434 -1.804,1.6402 -5.034,3.7364 -6.885,5.1757 -1.85,1.4393 -3.023,2.319 -4.247,3.418 -1.224,1.099 -1.779,1.0447 -3.125,3.125 -1.346,2.0803 -2.807,7.2287 -3.711,9.7656 -0.904,2.5369 -0.462,2.9304 -1.807,5.4199 -1.345,2.4895 -4.353,5.5095 -6.982,8.8379 -2.629,3.3284 -6.979,7.7509 -8.79,11.1329 -1.811,3.382 -1.998,4.9091 -2.734,8.3984 -0.736,3.4893 -0.743,8.4624 -1.267,12.5 -0.524,4.0376 -0.336,7.9019 -1.856,11.7188 -1.52,3.8169 -4.993,7.5628 -7.226,10.5468 -2.233,2.984 -4.297,4.8537 -6.055,7.4219 -1.758,2.5682 -3.184,5.4263 -4.492,7.9101 -1.308,2.4838 -2.069,4.7586 -3.388,6.9652 -1.319,2.2066 -2.942,4.0529 -4.494,6.2283 -1.552,2.1754 -3.891,4.7623 -4.814,6.8261 -0.923,2.0638 -0.276,3.6061 -1.172,5.0781 -0.896,1.472 -2.467,2.3031 -3.906,3.3203 -1.439,1.0172 -3.026,1.8792 -4.71,2.7354 -1.684,0.8562 -3.811,1.6312 -5.391,2.3715 -1.58,0.7403 -3.069,1.4821 -4.097,2.0409 -1.028,0.5588 -1.386,0.7836 -2.106,1.2431 -0.72,0.4595 -1.376,0.9975 -2.209,1.5191 -0.833,0.5216 -1.836,1.036 -2.797,1.5882 -0.961,0.5523 -1.899,1.1706 -2.97,1.7263 -1.07,0.5556 -2.35,0.8344 -3.452,1.5883 -1.102,0.7539 -2.242,1.4241 -3.027,2.9278 -0.785,1.5037 -0.436,3.6512 -0.955,5.8908 -0.519,2.2396 -1.299,5.0473 -2.272,7.4884 -0.973,2.4411 -2.221,4.9366 -3.552,7.1021 -1.331,2.1655 -2.675,3.8641 -4.356,5.87 -1.681,2.0059 -3.853,3.9153 -5.762,6.1034 -1.909,2.1881 -4.228,4.7524 -5.664,7.0313 -1.436,2.2789 -1.665,4.3404 -3.079,6.4334 -1.414,2.093 -3.322,4.1014 -5.42,5.9146 -2.098,1.8132 -5.129,3.1225 -7.126,4.8395 -1.997,1.717 -3.052,2.95 -4.883,5.2734 -1.831,2.3234 -4.391,6.0897 -5.859,8.7891 -1.468,2.6994 -2.199,5.0569 -3.125,7.2266 -0.926,2.1697 -1.366,3.792 -2.436,5.7882 -1.071,1.9962 -2.441,3.8568 -4.045,6.0903 -1.605,2.2336 -4.014,5.0696 -5.629,7.2621 -1.615,2.1925 -4.483,4.3512 -4.101,5.8594 0.382,1.5082 0.598,1.2281 1.953,0.9765 1.355,-0.2516 2.298,-2.3458 4.101,-4.4922 1.803,-2.1464 4.666,-6.0195 6.558,-8.4989 1.892,-2.4794 3.681,-4.2872 4.806,-6.3685 1.125,-2.0813 1.324,-3.6425 2.101,-5.8516 0.777,-2.2091 1.272,-4.7689 2.551,-7.406 1.279,-2.6371 3.193,-5.8094 5.274,-8.2031 2.081,-2.3937 4.964,-4.4433 7.031,-6.0547 2.067,-1.6114 3.308,-1.9444 5.273,-3.7109 1.965,-1.7665 4.522,-4.7381 6.202,-7.0746 1.68,-2.3365 2.589,-4.8517 3.954,-6.7926 1.365,-1.9409 2.465,-3.0445 4.102,-4.8828 1.637,-1.8383 3.978,-3.9995 5.761,-6.1035 1.783,-2.104 3.505,-4.213 4.933,-6.4941 1.428,-2.2811 2.68,-4.5087 3.613,-7.129 0.933,-2.6203 1.423,-6.2218 1.855,-8.4961 0.432,-2.2743 0.172,-3.9671 0.83,-5.1269 0.658,-1.1598 1.273,-1.2 2.149,-1.8067 0.876,-0.6067 2.116,-1.1715 3.125,-1.7578 1.009,-0.5863 2.139,-1.3474 2.929,-1.7578 0.79,-0.4104 1.322,-0.8183 1.758,-0.7812 0.436,0.037 0.327,0.1129 0.586,0.3906 0.259,0.2777 0.121,0.3098 0.781,1.3672 0.66,1.0574 2.246,3.3205 3.321,4.8828 1.075,1.5623 1.709,2.6224 3.125,4.4922 1.416,1.8698 3.447,4.1362 5.468,6.6406 2.021,2.5044 5.131,6.221 6.641,8.3984 1.51,2.1774 1.83,2.9129 2.686,4.4434 0.856,1.5305 1.616,3.0362 2.441,4.7363 0.825,1.7001 1.701,3.1845 2.49,5.4688 0.789,2.2843 1.717,5.7871 2.002,8.252 0.285,2.4649 0.19,4.0401 -0.05,6.3964 -0.24,2.3563 -0.988,5.2899 -1.513,7.666 -0.525,2.3761 -1.407,4.715 -1.612,6.5918 -0.205,1.8768 -0.103,2.7484 0.1,4.541 0.203,1.7926 0.601,4.0622 1.27,6.1524 0.669,2.0902 1.895,4.6061 2.782,6.2988 0.887,1.6927 1.347,2.3735 2.393,3.9063 1.046,1.5328 2.573,3.4659 3.956,5.2246 1.383,1.7587 2.903,4.7786 4.345,5.3222 1.442,0.5436 1.768,0.566 2.344,-0.3906 0.576,-0.9566 -0.657,-2.9081 -1.367,-4.1016 -0.71,-1.1935 -1.581,-1.6409 -2.735,-2.9296 -1.154,-1.2887 -3.054,-3.2512 -4.15,-4.834 -1.096,-1.5828 -1.819,-2.8724 -2.491,-4.5411 -0.672,-1.6687 -1.077,-3.6593 -1.465,-5.4198 -0.388,-1.7605 -0.71,-3.5848 -0.878,-5.127 -0.168,-1.5422 -0.346,-2.3973 -0.195,-4.1016 0.151,-1.7043 0.846,-3.7272 1.367,-6.0059 0.521,-2.2787 1.543,-5.1582 1.758,-7.666 0.215,-2.5078 -0.06,-4.5079 -0.391,-7.2265 -0.329,-2.7186 -0.935,-6.559 -1.709,-9.0333 -0.774,-2.4743 -1.682,-3.9711 -2.588,-5.8105 -0.906,-1.8394 -1.856,-3.4666 -2.832,-5.2246 -0.976,-1.758 -1.541,-2.9812 -3.027,-5.3222 -1.486,-2.341 -4.317,-6.2585 -6.055,-8.5938 -1.738,-2.3353 -2.963,-3.7427 -4.297,-5.4687 -1.334,-1.726 -2.415,-2.8732 -3.711,-4.8829 -1.296,-2.0097 -4.464,-5.0798 -3.906,-7.2265 0.558,-2.1467 2.574,-1.8633 4.297,-2.7344 1.723,-0.8711 4.167,-1.5254 6.055,-2.3437 1.888,-0.8183 3.673,-1.5509 5.273,-2.5391 1.6,-0.9882 3.145,-1.5246 4.297,-3.3203 1.152,-1.7957 0.603,-4.8504 1.666,-7.1802 1.063,-2.3298 3.185,-4.3768 4.698,-6.468 1.513,-2.0912 3.075,-3.9525 4.378,-6.0784 1.303,-2.1259 2.12,-4.2931 3.418,-6.6406 1.298,-2.3475 2.48,-4.7539 4.395,-7.4219 1.915,-2.668 4.967,-5.3349 7.226,-8.3984 2.259,-3.0635 4.702,-6.0079 6.25,-9.961 1.548,-3.9531 2.011,-9.3974 2.539,-13.4765 0.528,-4.0791 -0.05,-7.4107 0.781,-10.9375 0.829,-3.5268 2.288,-6.9043 4.102,-9.961 1.814,-3.0567 4.111,-5.0936 6.641,-8.2031 2.53,-3.1095 7.139,-7.5734 8.545,-10.4492 1.406,-2.8758 0.631,-3.239 1.269,-5.5664 0.638,-2.3274 1.248,-6.3098 2.685,-8.3496 1.437,-2.0399 3.177,-2.9266 4.493,-3.9551 1.316,-1.0285 1.632,-0.9913 3.32,-2.2949 1.688,-1.3036 4.886,-3.9243 6.641,-5.7129 1.755,-1.7886 2.663,-3.0537 4.004,-4.834 1.341,-1.7803 2.701,-3.6317 4.004,-5.8594 1.302,-2.2277 2.842,-5.0121 3.711,-7.5195 0.869,-2.5074 1.292,-4.7964 1.562,-7.3731 0.27,-2.5767 -0.08,-5.8259 0,-8.0078 0.61,-16.6374 -9.162,-11.3777 -7.715,-8.8379 z"
       id="reikstream"
       sodipodi:nodetypes="zzzzzzzzzzzzzzzzzzzzzzzzzzzzzzzzzzzzzzzzzzzzzzzzzzzzzzzzzzzzzzzzzzzzzzzzzzzzzzzzzzzzzzzzzzzzzzzzzzzzzzzzzzzzzzzzzzzzzzzzzzzzzzzzzzzzzzzzz" />
    <path
       style="display:inline;fill:#0000f9;fill-opacity:1"
       d="m 13737.759,9242.9353 c 0.329,-2.2617 5.904,-3.3434 8.01,-5.2481 2.106,-1.9047 3.637,-3.0475 4.696,-5.8005 1.059,-2.753 0.08,-7.6392 0.552,-10.2199 0.47,-2.5807 0.851,-3.0958 1.658,-5.248 0.807,-2.1522 2.656,-5.5647 3.314,-7.5959 0.658,-2.0312 0.644,-3.0154 0.967,-4.4194 0.323,-1.404 0.526,-2.1185 0.967,-4.0051 0.441,-1.8866 0.851,-4.455 1.657,-7.3197 0.806,-2.8647 2.838,-7.8108 3.314,-9.8055 0.476,-1.9947 0.514,-1.3252 0.277,-1.9335 -0.237,-0.6083 -0.933,-1.0868 -1.52,-1.243 -0.587,-0.1562 -0.827,0.1207 -1.657,0.2762 -0.83,0.1555 -1.745,0.5288 -3.314,0.6905 -1.569,0.1617 -4.466,0 -6.077,0 -1.611,0 -2.438,0.072 -3.591,0 -1.153,-0.072 -2.255,-0.3 -3.314,-0.4143 -1.059,-0.1143 -1.716,-0.029 -3.039,-0.2762 -1.323,-0.247 -3.388,-1.1787 -4.833,-1.3811 -1.445,-0.2024 -2.578,0 -3.729,0 -1.151,0 -2.132,-0.14 -3.177,0 -1.045,0.14 -1.954,0.4864 -3.038,0.8287 -1.084,0.3423 -2.251,0.7177 -3.453,1.2429 -1.202,0.5252 -1.699,1.1217 -3.729,1.9335 -2.03,0.8118 -5.626,1.3894 -8.562,2.486 -2.936,1.0966 -6.559,3.3758 -8.977,4.1432 -2.418,0.7674 -3.222,0.5775 -5.248,0.9667 -2.026,0.3892 -4.826,1.1226 -6.906,1.3811 -2.08,0.2585 -3.844,0.1833 -5.524,0.2762 -1.68,0.093 -2.601,0.1793 -4.557,0.2762 -1.956,0.097 -5.248,0.2088 -7.182,0.2762 -1.934,0.067 -2.823,-0.058 -4.419,0.1381 -1.596,0.1959 -3.587,0.8622 -5.11,1.1049 -1.523,0.2427 -2.83,0.3537 -4.006,0.4143 -1.176,0.061 -2.38,0.5807 -3.038,0 -0.658,-0.5807 -0.977,-1.4428 -0.276,-2.2097 0.701,-0.7669 2.807,0.1435 4.005,0.1381 1.198,-0.01 2.253,-0.011 3.176,-0.1381 0.923,-0.1275 1.494,-0.3032 2.348,-0.5524 0.854,-0.2492 1.674,-0.7403 2.762,-0.9668 1.088,-0.2265 2.661,-0.3476 3.729,-0.2762 1.068,0.071 1.122,0.429 2.624,0.5524 1.502,0.1234 4.788,-0.1358 6.353,-0.2762 1.565,-0.1404 1.888,-0.2536 3.039,-0.4143 1.151,-0.1607 2.531,-0.3236 3.867,-0.5524 1.336,-0.2288 2.713,-0.4634 4.143,-0.8287 1.43,-0.3653 3.061,-0.9426 4.419,-1.381 1.358,-0.4384 2.37,-0.7618 3.729,-1.243 1.359,-0.4812 2.786,-1.079 4.42,-1.6573 1.634,-0.5783 3.775,-1.1404 5.386,-1.7954 1.611,-0.655 3.062,-1.4718 4.281,-2.0716 1.219,-0.5998 1.641,-0.9403 3.038,-1.5191 1.397,-0.5788 4.003,-1.3671 5.387,-1.7954 1.384,-0.4283 1.818,-0.5707 2.9,-0.8287 1.082,-0.258 2.114,-0.5497 3.591,-0.6905 1.477,-0.1408 3.75,-0.083 5.248,0 1.498,0.083 2.347,0.2958 3.728,0.4143 1.381,0.1185 3.108,0.1598 4.558,0.2762 1.45,0.1164 2.298,0.3592 4.143,0.4143 1.845,0.055 4.258,-0.2436 6.906,-0.2762 2.648,-0.033 7.042,0.2748 8.976,0.1381 1.934,-0.1367 1.758,-0.1156 2.625,-0.4143 0.867,-0.2987 1.541,-0.9583 2.485,-1.381 0.944,-0.4227 2.045,-0.8236 3.177,-1.1049 1.132,-0.2813 2.16,-0.2641 3.591,-0.5524 1.431,-0.2883 2.736,-0.4219 4.972,-1.243 2.236,-0.8211 5.608,-2.8675 8.218,-4.0605 2.61,-1.193 5.206,-1.9337 7.422,-3.125 2.216,-1.1913 4.202,-2.5151 5.859,-3.9062 1.657,-1.3911 3.079,-3.0378 4.102,-4.2969 1.023,-1.2591 2.008,-2.2673 2.148,-3.125 0.14,-0.8577 -0.02,-0.9464 -0.391,-1.3672 -0.366,-0.4208 -0.56,-0.4821 -1.757,-0.7813 -1.197,-0.2992 -3.581,-0.2288 -5.469,-0.3906 -1.888,-0.1618 -3.808,-0.3591 -5.859,-0.5859 -2.051,-0.2268 -3.967,-0.6605 -6.446,-0.7813 -2.479,-0.1208 -6.375,0.3822 -8.398,0.1953 -2.023,-0.1869 -2.503,-0.6214 -3.711,-0.7812 -1.208,-0.1598 -2.247,-0.1298 -3.516,-0.1953 -1.269,-0.065 -2.756,-0.2962 -4.101,-0.1953 -1.345,0.1009 -2.298,0.3187 -3.907,0.7812 -1.609,0.4625 -3.388,1.3852 -5.664,2.1485 -2.276,0.7633 -5.465,1.426 -8.007,2.3437 -2.542,0.9177 -4.785,2.1155 -7.227,3.125 -2.442,1.0095 -5.252,2.3143 -7.422,2.9297 -2.17,0.6154 -2.992,0.7312 -5.469,0.9766 -2.477,0.2454 -5.952,-0.05 -9.375,0.1953 -3.423,0.2452 -8.686,1.1493 -11.132,1.3672 -2.446,0.2179 -1.846,-0.027 -3.516,0.1953 -1.67,0.2222 -4.255,1.1049 -6.445,1.3672 -2.19,0.2623 -4.424,0.2603 -6.641,0.1953 -2.217,-0.065 -5.013,-0.4633 -6.641,-0.586 -1.628,-0.1227 -0.227,0.014 -3.125,-0.1953 -2.898,-0.2097 -12.88,1.2308 -14.257,-1.1719 -1.377,-2.4027 -0.262,-1.3538 1.001,-2.0835 1.263,-0.7297 4.787,0.4052 6.422,0.4834 1.635,0.078 1.62,-0.034 3.383,0.069 1.763,0.1026 4.981,0.5849 7.182,0.6905 2.201,0.1056 4.637,-0.085 6.007,0 1.37,0.085 1.07,0.2053 2.21,0.2763 1.14,0.071 3.181,0.1601 4.627,0 1.446,-0.1601 2.997,-0.5088 4.005,-0.8977 1.008,-0.3889 0.863,-0.7258 2.071,-1.1739 1.208,-0.4481 3.443,-0.8708 5.248,-1.0358 1.805,-0.165 3.983,0.059 5.525,0.069 1.542,0.01 2.544,0 3.729,0 1.185,0 2.25,0.1031 3.383,0 1.133,-0.1031 1.235,-0.1581 3.384,-0.6215 2.149,-0.4634 7.125,-1.5588 9.46,-2.3478 2.335,-0.789 3.177,-1.3571 4.627,-2.0025 1.45,-0.6454 2.751,-1.2544 4.074,-1.8645 1.323,-0.6101 2.349,-1.227 3.867,-1.7954 1.518,-0.5684 4.026,-1.069 5.248,-1.5191 1.222,-0.4501 1.121,-0.5801 2.141,-0.9668 1.02,-0.3867 2.774,-0.8261 4.005,-1.2429 1.231,-0.4168 2.318,-1.0404 3.383,-1.243 1.065,-0.2026 1.599,-0.09 2.901,-0.069 1.302,0.021 3.323,0.1007 4.902,0.2762 1.579,0.1755 3.142,0.5299 4.558,0.7596 1.416,0.2297 1.758,0.4672 3.936,0.6215 2.178,0.1543 6.479,-0.064 9.115,-0.1381 2.636,-0.074 4.773,-0.3052 6.698,-0.2762 1.925,0.029 3.095,0.2833 4.834,0.3453 1.739,0.062 4.05,0.044 5.593,0 1.543,-0.044 2.612,-0.082 3.66,-0.2072 1.048,-0.1257 1.49,-0.2005 2.624,-0.4834 1.134,-0.2829 3.016,-0.7757 4.143,-1.312 1.127,-0.5363 1.203,-0.956 2.624,-1.7263 1.421,-0.7703 4.098,-1.7478 6.008,-2.624 1.91,-0.8762 4.136,-1.6127 5.455,-2.6241 1.319,-1.0114 1.641,-1.8325 2.555,-2.9693 0.914,-1.1368 1.956,-2.5663 2.9,-3.867 0.944,-1.3007 1.912,-2.7159 2.763,-3.936 0.851,-1.2201 1.397,-2.0904 2.347,-3.3836 0.95,-1.2932 2.496,-3.2242 3.384,-4.3504 0.888,-1.1262 1.163,-1.4721 1.933,-2.4169 0.77,-0.9448 1.74,-2.3136 2.694,-3.2455 0.954,-0.9319 1.828,-1.3227 2.969,-2.3478 1.141,-1.0251 3.019,-2.7249 3.798,-3.867 0.779,-1.1421 0.66,-1.5174 1.174,-2.624 0.514,-1.1066 0.878,-2.2026 1.933,-4.0051 1.055,-1.8025 3.389,-4.9073 4.627,-6.6291 1.238,-1.7218 1.937,-2.2755 2.762,-3.7289 0.825,-1.4534 1.301,-3.475 2.071,-4.9719 0.77,-1.4969 1.991,-2.6323 2.486,-4.0051 0.495,-1.3728 0.346,-2.6469 0.553,-4.0051 0.207,-1.3582 0.293,-2.5454 0.69,-4.1432 0.397,-1.5978 1.221,-3.5906 1.796,-5.3861 0.575,-1.7955 0.984,-3.6791 1.657,-5.3862 0.673,-1.7071 1.312,-3.5305 2.348,-4.8337 1.036,-1.3032 2.381,-2.1222 3.591,-2.9003 1.21,-0.7781 2.344,-1.287 3.59,-1.7954 1.246,-0.5084 2.713,-0.927 3.867,-1.2429 1.154,-0.3159 1.797,-0.4526 3.039,-0.6905 1.242,-0.2379 3.107,-0.4831 4.419,-0.6906 1.312,-0.2075 1.567,-0.2858 3.453,-0.5524 1.886,-0.2666 5.981,-2.3957 7.872,-0.9668 1.891,1.4289 2.012,4.8171 0.967,6.2148 -1.045,1.3977 -2.648,0.3673 -4.144,0.5525 -1.496,0.1852 -3.383,0.3403 -4.833,0.5524 -1.45,0.2121 -2.392,0.3747 -3.867,0.6905 -1.475,0.3158 -3.499,0.8487 -4.972,1.243 -1.473,0.3943 -2.487,0.4985 -3.867,1.1049 -1.38,0.6064 -3.239,1.5221 -4.281,2.624 -1.042,1.1019 -1.336,2.4393 -1.934,3.5908 -0.598,1.1515 -1.163,1.9099 -1.657,3.3145 -0.494,1.4046 -0.683,3.5676 -1.105,5.11 -0.422,1.5424 -1.016,2.8051 -1.381,4.1432 -0.365,1.3381 -0.439,2.5729 -0.829,3.867 -0.39,1.2941 -0.833,2.5656 -1.519,3.867 -0.686,1.3014 -1.059,1.8452 -2.624,3.8669 -1.565,2.0217 -5.705,6.0231 -7.043,8.0102 -1.338,1.9871 -1.007,1.936 -1.658,3.3146 -0.651,1.3786 -1.633,3.6832 -2.209,4.9718 -0.576,1.2886 -0.657,1.7143 -1.243,2.7622 -0.586,1.0479 -1.217,2.1943 -2.348,3.4527 -1.131,1.2584 -3.24,2.8148 -4.558,3.8669 -1.318,1.0521 -2.238,1.4523 -3.314,2.486 -1.076,1.0337 -2.022,2.372 -3.039,3.7289 -1.017,1.3569 -1.99,2.697 -3.038,4.4194 -1.048,1.7224 -1.941,3.9598 -3.176,5.9386 -1.235,1.9788 -2.939,4.6845 -4.25,5.8886 -1.311,1.2041 -1.839,1.1217 -2.929,1.7578 -1.09,0.6361 -2.408,1.3027 -3.614,2.0508 -1.206,0.7481 -2.279,1.6382 -3.613,2.4414 -1.334,0.8032 -3.141,1.6767 -4.394,2.3438 -1.253,0.6671 -2.115,1.0734 -3.125,1.6601 -1.01,0.5867 -1.844,0.841 -2.93,1.8555 -1.086,1.0145 -2.259,3.1271 -3.223,4.3945 -0.964,1.2674 -1.454,2.1431 -2.539,3.2227 -1.085,1.0796 -2.272,1.717 -4.004,3.125 -1.732,1.408 -4.738,4.2363 -6.347,5.3711 -1.609,1.1348 -1.953,1.2178 -3.028,1.7578 -1.075,0.54 -1.808,0.6753 -3.418,1.4648 -1.61,0.7895 -4.308,2.4644 -6.152,3.418 -1.844,0.9536 -3.553,1.6316 -4.883,2.3437 -1.33,0.7121 -1.717,1.1337 -3.125,1.8555 -1.408,0.7218 -3.998,1.6149 -5.371,2.3438 -1.373,0.7289 -1.842,1.036 -2.93,1.8554 -1.088,0.8194 -2.425,1.8854 -3.515,3.125 -1.09,1.2396 -2.231,2.7905 -2.93,4.2969 -0.699,1.5064 -0.847,3.0273 -1.27,4.5898 -0.423,1.5625 -0.861,3.125 -1.269,4.7852 -0.408,1.6602 -0.819,3.2062 -1.172,5.1758 -0.353,1.9696 -0.419,4.8822 -0.879,6.6406 -0.46,1.7584 -1.148,2.9324 -1.562,3.9063 -0.414,0.9739 -0.619,1.3176 -0.879,1.9531 -0.26,0.6355 -0.44,0.7523 -0.684,1.8555 -0.244,1.1032 -0.294,3.2548 -0.39,4.7851 -0.1,1.5303 -0.04,2.8128 -0.196,4.3945 -0.156,1.5817 -0.301,3.6525 -0.781,5.0782 -0.48,1.4257 -1.372,2.4709 -1.855,3.4179 -0.483,0.947 -0.317,1.1173 -1.075,2.2461 -0.758,1.1288 -2.457,3.1145 -3.808,4.1992 -1.351,1.0847 -2.963,1.6927 -4.102,2.3438 -1.139,0.6511 -1.538,1.7737 -2.734,1.5625 -1.196,-0.2112 -3,-0.8969 -2.671,-3.1586 z"
       id="grissenwald_stream"
       sodipodi:nodetypes="zzzzzzzzzzzzzzzzzzzzzzzzzzzzzzzzzzzzzzzzzzzzzzzzzzzzzzzzzzzzzzzzzzzzzzzzzzzzzzzzzzzzzzzzzzzzzzzzzzzzzzzzzzzzzzzzzzzzzzzzzzzzzzzzzzzzzzzzzzzzzzzzzzzzzzzzzzzzzzzzzzzzzzzzzzzzzzzzzzzzzzzzzzzzzzzzzzzzzzzzzzzzzzzzzzzzzzzzz" />
    <path
       style="display:inline;fill:#0000f3;fill-opacity:1;stroke:none;stroke-width:5;stroke-linecap:round;stroke-dasharray:none;stroke-opacity:1;paint-order:stroke fill markers"
       d="m 13552.539,9038.6712 c 1.507,-1.2143 2.154,-1.8186 3.418,-3.7109 1.264,-1.8923 2.837,-4.9442 3.613,-7.8125 0.776,-2.8683 1.254,-6.5145 0.879,-9.1797 -0.375,-2.6652 -1.431,-4.0727 -2.539,-6.4453 -1.108,-2.3726 -3.014,-4.9388 -4.199,-7.7149 -1.185,-2.7761 -2.165,-6.1245 -2.832,-8.8867 -0.667,-2.7622 -0.487,-5.2327 -1.27,-7.6172 -0.783,-2.3845 -2.261,-3.8124 -3.32,-6.5429 -1.059,-2.7305 -1.956,-6.6707 -2.734,-9.8633 -0.778,-3.1926 -1.745,-5.7258 -1.953,-9.2774 -0.208,-3.5516 0,-8.2577 1.074,-11.8164 1.077,-3.5587 3.643,-6.5014 4.98,-9.1797 1.337,-2.6783 2.05,-4.1701 3.125,-6.8359 1.075,-2.6658 2.695,-5.8911 3.223,-9.1797 0.528,-3.2886 -0.08,-6.9658 -0.195,-10.2539 -0.116,-3.2881 -0.66,-6.6741 -0.489,-9.4726 0.171,-2.7985 0.503,-3.7622 1.27,-7.2266 0.767,-3.4644 2.824,-9.6199 3.613,-13.4766 0.789,-3.8567 1.512,-6.5888 1.367,-9.5703 -0.145,-2.9815 -0.598,-3.7621 -1.953,-8.0078 -1.355,-4.2457 -4.916,-13.1936 -6.836,-17.1875 -1.92,-3.9939 -2.818,-4.0456 -4.004,-7.0312 -1.186,-2.9856 -2.221,-8.2088 -2.644,-10.8673 -0.423,-2.6585 -0.499,-2.9342 -0.383,-4.9526 0.116,-2.0184 1.2,-4.1445 1.367,-7.0312 0.167,-2.8867 -0.681,-6.0501 -0.781,-10.1563 -0.1,-4.1062 0.688,-10.8618 0.391,-14.4531 -0.297,-3.5913 -1.257,-4.5636 -1.368,-7.0312 -0.111,-2.4676 0.308,-4.8736 0.782,-7.6172 0.474,-2.7436 1.305,-5.7591 2.148,-8.7891 0.843,-3.03 2.084,-6.2473 2.93,-9.375 0.846,-3.1277 1.367,-6.2168 2.148,-9.375 0.781,-3.1582 2.042,-6.5905 2.539,-9.5703 0.496,-2.9798 0.462,-5.8259 0.586,-8.2031 0.126,-2.3772 -0.03,-3.9974 0.196,-6.0547 0.225,-2.0573 0.848,-4.3285 1.171,-6.25 0.323,-1.9215 0.591,-3.8403 0.782,-5.2734 0.191,-1.4331 0.06,-2.0317 0.39,-3.3204 0.333,-1.2887 1.041,-2.8911 1.758,-4.2968 0.717,-1.4057 1.534,-2.6942 2.539,-4.1016 1.005,-1.4074 2.044,-2.9968 3.516,-4.2969 1.472,-1.3001 3.58,-2.2126 5.273,-3.3203 1.693,-1.1077 3.439,-1.8395 4.883,-3.3203 1.444,-1.4808 2.12,-3.6335 3.516,-5.4687 1.396,-1.8352 3.38,-3.878 4.883,-5.4688 1.503,-1.5908 2.622,-2.4494 4.101,-4.1016 1.479,-1.6522 2.687,-3.7453 4.688,-5.8593 2.001,-2.114 5.22,-4.1172 7.421,-6.6407 2.201,-2.5235 4.153,-5.8089 5.665,-8.3984 1.512,-2.5895 2.437,-4.5879 3.515,-7.0312 1.078,-2.4433 1.603,-5.3156 2.93,-7.6172 1.327,-2.3016 3.157,-3.9064 4.883,-6.0547 1.726,-2.1483 3.451,-4.5825 5.468,-6.836 2.017,-2.2535 4.55,-3.9712 6.641,-6.6406 2.091,-2.6694 3.976,-6.4418 5.664,-9.375 1.688,-2.9332 3.441,-5.1048 4.492,-8.2031 1.051,-3.0983 0.727,-6.6583 1.563,-10.1563 0.836,-3.498 2.339,-7.3572 3.515,-10.7421 1.176,-3.3849 2.808,-6.6764 3.516,-9.5704 0.708,-2.894 0.907,-4.378 0.977,-7.6171 0.07,-3.2391 -1.017,-8.5477 -0.977,-11.7188 0.04,-3.1711 0.32,-3.9333 0.781,-7.2266 0.461,-3.2933 1.247,-8.0041 2.149,-12.5 0.902,-4.4959 2.382,-9.8933 3.32,-14.4531 0.938,-4.5598 1.831,-8.7158 2.344,-12.8906 0.513,-4.1748 0.965,-8.0976 0.781,-12.1094 -0.184,-4.0118 -1.285,-8.6448 -1.855,-11.8164 -0.57,-3.1716 -0.996,-4.1839 -1.465,-7.2265 -0.469,-3.0426 -1.042,-7.8533 -1.172,-11.0352 -0.13,-3.1819 -0.136,-5.0313 0.195,-8.0078 0.331,-2.9765 1.263,-6.7384 1.953,-9.7656 0.69,-3.0272 1.459,-5.9094 2.149,-8.3985 0.69,-2.4891 1.269,-4.248 1.953,-6.5429 0.684,-2.2949 1.573,-4.5203 2.148,-7.2266 0.575,-2.7063 0.865,-6.1024 1.172,-8.9844 0.307,-2.882 0.744,-5.3548 0.684,-8.3008 -0.06,-2.946 -0.657,-5.9709 -1.172,-9.2773 -0.515,-3.3064 -1.582,-7.6732 -1.953,-10.5469 -0.371,-2.8737 -0.559,-4.4315 -0.489,-6.6406 0.07,-2.2091 0.442,-4.537 0.879,-6.543 0.437,-2.006 0.649,-3.8881 1.661,-5.4687 1.012,-1.5806 2.78,-2.3345 4.143,-3.6845 1.363,-1.35 2.661,-2.5855 4.005,-4.4194 1.344,-1.8339 2.949,-4.3438 3.867,-6.6292 0.918,-2.2854 4.759,-5.3854 3.956,-7.6124 -0.702,-1.949 -2.511,-3.7036 -4.353,-2.7566 -1.843,0.9472 -2.158,4.0791 -2.779,5.9496 -0.621,1.8705 -2.032,2.9264 -3.453,4.4194 -1.421,1.493 -3.536,2.7793 -5.11,4.4194 -1.574,1.6401 -2.945,3.2909 -4.281,5.3862 -1.336,2.0953 -2.993,4.4573 -3.591,7.1816 -0.598,2.7243 0.04,5.4743 0.276,8.7007 0.24,3.2264 1.007,6.9697 1.243,10.6342 0.238,3.6645 -0.08,7.2465 0.138,11.3248 0.218,4.0783 1.4,8.6862 1.243,13.1201 -0.156,4.4339 -1.104,9.3104 -2.209,13.2583 -1.105,3.9479 -3.162,7.3479 -4.143,10.358 -0.981,3.0101 -1.276,3.573 -1.934,7.5959 -0.658,4.0229 -1.135,12.1002 -1.243,16.5728 -0.108,4.4726 0.02,6.7635 0.276,10.2199 0.251,3.4564 0.649,7.2929 1.243,10.4961 0.594,3.2032 1.769,5.7163 2.21,8.7007 0.444,2.9844 0.683,5.632 0.414,9.1151 -0.269,3.4831 -1.736,8.1222 -2.348,11.6009 -0.612,3.4787 -0.898,6.0997 -1.381,9.2532 -0.483,3.1535 -0.803,6.7621 -1.519,9.6675 -0.716,2.9054 -1.909,5.8544 -2.624,7.7339 -0.715,1.8795 -0.9,1.076 -1.519,3.5908 -0.619,2.5148 -1.037,8.8023 -0.967,11.601 0.07,2.7987 0.475,3.1074 0.691,5.1099 0.216,2.0025 0.572,4.7568 0.552,6.9054 -0.02,2.1486 -0.09,3.502 -0.552,5.9386 -0.463,2.4366 -1.654,5.8699 -2.486,8.5626 -0.832,2.6927 -1.523,4.8316 -2.486,7.5959 -0.963,2.7643 -2.256,6.1227 -3.315,8.9769 -1.059,2.8542 -2.262,6.1977 -3.038,8.1483 -0.776,1.9506 -0.697,1.9601 -1.519,3.5908 -0.822,1.6307 -2.48,4.3074 -3.591,6.0767 -1.111,1.7693 -1.666,3.2027 -3.038,4.5575 -1.372,1.3548 -3.348,1.7236 -5.11,3.3146 -1.762,1.591 -3.693,4.4084 -5.11,6.3529 -1.417,1.9445 -2.151,3.1134 -3.453,5.2481 -1.302,2.1347 -2.893,4.8801 -4.281,7.5958 -1.388,2.7157 -2.73,6.1258 -4.005,8.7008 -1.275,2.575 -1.705,4.2859 -3.591,6.7672 -1.886,2.4813 -5.86,5.6256 -8.01,7.5959 -2.15,1.9703 -2.877,2.3662 -4.834,4.2813 -1.957,1.9151 -5.097,5.0141 -6.767,7.3196 -1.67,2.3055 -2.006,4.1687 -3.453,6.2148 -1.447,2.0461 -2.947,4.0764 -5.248,5.9386 -2.301,1.8622 -6.586,3.1642 -8.563,4.8338 -1.977,1.6696 -2.224,2.4772 -3.59,4.4194 -1.366,1.9422 -3.555,5.0467 -4.42,7.3196 -0.865,2.2729 -0.691,3.9125 -1.105,5.9386 -0.414,2.0261 -1.079,4.091 -1.381,6.2148 -0.302,2.1238 -0.364,4.3484 -0.414,6.4911 -0.05,2.1427 0.198,3.9793 0.138,6.3529 -0.06,2.3736 -0.218,5.6833 -0.552,7.8721 -0.334,2.1888 -0.656,3.0115 -1.243,5.248 -0.586,2.2365 -1.759,5.9586 -2.348,8.1483 -0.589,2.1897 -0.678,3.0564 -1.243,4.9719 -0.565,1.9155 -1.544,4.4648 -2.21,6.491 -0.666,2.0262 -1.232,3.545 -1.795,5.6624 -0.563,2.1174 -1.258,4.405 -1.519,7.0434 -0.26,2.6384 -0.07,6.6286 0.138,8.7007 0.207,2.0721 0.465,1.8423 0.69,3.7289 0.225,1.8866 0.355,4.7632 0.415,7.5959 0.06,2.8327 -0.139,6.4216 -0.138,9.3913 0,2.9697 0.168,5.8455 0.138,8.4245 -0.03,2.579 0,4.8738 -0.277,7.0434 -0.268,2.1696 -0.687,4.0035 -1.243,5.9386 -0.556,1.9351 -1.058,4.3481 -2.078,5.6417 -1.02,1.2936 -2.06,0.8481 -3.223,2.1484 -1.163,1.3003 -1.934,4.413 -3.027,5.8594 -1.093,1.4464 -1.644,1.8836 -3.125,2.9297 -1.481,1.0461 -3.866,2.3321 -5.859,3.0273 -1.993,0.6952 -3.489,0.9591 -5.957,1.1719 -2.468,0.2128 -6.228,-0.5277 -8.79,-0.1953 -2.562,0.3324 -4.172,0.669 -6.445,1.8554 -2.273,1.1864 -4.459,3.6295 -6.738,5.4688 -2.279,1.8393 -4.384,4.0703 -6.934,5.5664 -2.55,1.4961 -4.638,2.5843 -8.203,3.3203 -3.565,0.736 -9.275,0.3488 -12.988,0.293 -3.713,-0.056 -6.086,-0.278 -9.277,-0.4883 -3.191,-0.2103 -6.852,-0.6082 -9.864,-0.7812 -3.012,-0.173 -5.956,-0.2738 -8.203,-0.293 -2.247,-0.019 -3.465,-0.3465 -5.273,0.098 -1.808,0.4445 -3.268,1.883 -5.274,2.6368 -2.006,0.7538 -4.35,1.7571 -6.738,1.7578 -2.388,7e-4 -3.539,-0.4905 -7.129,-1.8555 -3.59,-1.365 -10.521,-5.6303 -13.965,-7.1289 -3.444,-1.4986 -4.503,-1.8854 -6.445,-2.3438 -1.942,-0.4584 -2.719,-0.3738 -5.078,-0.5859 -2.359,-0.2121 -6.425,-0.5572 -9.082,-0.5859 -2.657,-0.029 -4.911,0.033 -6.836,0.2929 -1.925,0.2595 -3.165,0.3572 -4.688,1.0743 -1.523,0.7171 -2.668,2.3687 -4.199,3.2226 -1.531,0.8539 -2.824,1.4916 -4.883,1.8555 -2.059,0.3639 -5.139,0.082 -7.324,-0.098 -2.185,-0.1804 -3.236,-0.6741 -5.762,-0.8789 -2.526,-0.2048 -6.721,-0.1435 -9.375,-0.098 -2.654,0.046 -4.263,0.1327 -6.543,0.2929 -2.28,0.1602 -4.441,0.555 -7.129,0.6836 -2.688,0.1286 -5.56,0.6243 -8.984,0 -3.424,-0.6243 -7.323,-2.6874 -11.133,-4.1992 -3.81,-1.5118 -8.34,-3.5982 -11.718,-4.8828 -3.378,-1.2846 -5.632,-1.9692 -8.497,-2.9297 -2.865,-0.9605 -5.569,-2.1625 -8.691,-2.832 -3.122,-0.6695 -7.228,-0.7199 -9.961,-1.0742 -2.733,-0.3543 -5.211,-1.6526 -6.445,-0.9766 -1.234,0.676 -1.474,0.5276 -0.781,1.7578 0.693,1.2302 4.574,0.512 6.494,0.8301 1.92,0.3181 3.117,0.6786 5.029,1.0254 1.912,0.3468 4.82,0.7054 6.445,1.0254 1.625,0.32 1.752,0.2932 3.321,0.7812 1.569,0.488 3.211,1.2272 6.005,2.3438 2.794,1.1166 7.82,3.3001 10.743,4.3945 2.923,1.0944 4.947,1.5511 6.738,2.2949 1.791,0.7438 2.771,1.5335 4.053,2.002 1.282,0.4685 2.299,0.4852 3.564,0.8789 1.265,0.3937 2.403,0.968 4.004,1.5137 1.601,0.5457 4.08,1.5592 5.615,1.7089 1.535,0.1497 1.748,-0.1537 3.369,-0.3418 1.621,-0.1881 4.829,-0.5712 6.348,-0.83 1.519,-0.2588 1.486,-0.4445 2.783,-0.586 1.297,-0.1415 2.522,-0.086 4.981,-0.049 2.459,0.037 7.52,0.2277 9.765,0.3906 2.245,0.1629 2.277,0.2007 3.711,0.3907 1.434,0.19 3.283,0.654 4.883,0.7812 1.6,0.1272 3.146,0.1979 4.688,0 1.542,-0.1979 3.042,-0.5506 4.492,-1.1719 1.45,-0.6213 3.085,-1.8397 4.101,-2.539 1.016,-0.6993 1.214,-1.136 2.051,-1.5625 0.837,-0.4265 1.677,-0.6061 2.93,-0.8789 1.253,-0.2728 3.138,-0.5348 4.59,-0.6348 1.452,-0.1 2.407,-0.061 4.101,0 1.694,0.061 4.361,0.1779 6.055,0.4394 1.694,0.2615 2.595,0.5886 4.101,0.9766 1.506,0.388 3.45,0.827 4.932,1.3672 1.482,0.5402 2.498,1.1243 3.955,1.8066 1.457,0.6823 3.116,1.4582 4.785,2.295 1.669,0.8368 3.483,1.8637 5.225,2.7343 1.742,0.8706 3.137,1.9578 5.225,2.4903 2.088,0.5325 5.211,0.7017 7.128,0.3906 1.917,-0.3111 2.557,-1.031 4.2,-1.6602 1.643,-0.6292 4.12,-1.6664 5.664,-2.0996 1.544,-0.4332 2.121,-0.5279 3.515,-0.6836 1.394,-0.1557 3.493,-0.2588 4.834,-0.1465 1.341,0.1123 1.411,0.3802 3.174,0.6348 1.763,0.2546 4.974,0.393 7.419,0.6656 2.445,0.2726 4.316,0.654 7.25,0.9668 2.934,0.3128 8.214,0.743 10.358,0.8286 2.144,0.086 1.878,-0.4434 2.486,0 0.608,0.4434 0.234,0.3572 0.622,1.9335 0.388,1.5763 0.858,5.48 1.312,7.5959 0.454,2.1159 0.969,3.2542 1.312,5.1099 0.343,1.8557 0.74,3.8462 0.69,6.0077 -0.05,2.1615 -0.578,4.6906 -1.105,6.8363 -0.527,2.1457 -1.494,4.5005 -2.002,6.0076 -0.508,1.5071 -0.368,2.1112 -1.036,3.0384 -0.668,0.9272 -1.775,1.4641 -2.9,2.2097 -1.125,0.7456 -2.34,1.6073 -3.867,2.2097 -1.527,0.6024 -2.263,0.8943 -5.248,1.2429 -2.985,0.3486 -9.747,-0.253 -12.637,0 -2.89,0.253 -2.946,0.5077 -4.696,0.8287 -1.75,0.321 -4.236,0.7755 -5.8,1.1048 -1.564,0.3293 -2.144,0.1477 -3.591,0.8287 -1.447,0.681 -3.514,2.1799 -4.695,3.5907 -1.181,1.4108 -1.759,2.8875 -2.348,4.5576 -0.589,1.6701 -0.884,3.7002 -1.105,5.3861 -0.221,1.6859 -0.159,3.2224 -0.276,4.6957 -0.117,1.4733 -0.187,2.7361 -0.415,4.1432 -0.228,1.4071 -0.346,3.156 -0.966,4.2813 -0.62,1.1253 -1.452,1.5595 -2.348,2.3478 -0.896,0.7883 -1.779,1.504 -3.039,2.3478 -1.26,0.8438 -3.004,1.9348 -4.557,2.624 -1.553,0.6892 -3.17,1.2827 -5.526,1.6169 -2.356,0.3341 -5.691,-0.072 -8.507,-0.3882 -2.816,-0.316 -4.506,-0.8227 -7.519,-1.4648 -3.013,-0.6421 -7.272,-1.7991 -10.547,-2.4415 -3.275,-0.6424 -5.616,-0.9398 -9.082,-1.4648 -3.466,-0.525 -8.992,-1.4096 -11.719,-1.6602 -2.727,-0.2506 -2.845,-0.028 -4.59,-0.1953 -1.745,-0.1675 -2.729,-0.6812 -5.859,-0.8789 -3.13,-0.1977 -9.377,-0.2457 -12.891,0.293 -3.514,0.5387 -6.007,1.2705 -8.105,2.3437 -2.098,1.0732 -3.124,2.2725 -4.492,3.5157 -1.368,1.2432 -3.688,2.6394 -3.711,3.9062 -0.02,1.2668 0.256,1.5645 1.465,1.6602 1.209,0.096 2.515,-2.2915 3.906,-3.2227 1.391,-0.9312 2.96,-1.6455 4.394,-2.3437 1.434,-0.6982 2.667,-1.4674 4.2,-1.8555 1.533,-0.3881 3.059,-0.303 4.882,-0.3906 1.823,-0.088 4.117,-0.1333 6.055,-0.098 1.938,0.035 3.071,0.059 5.566,0.293 2.495,0.2342 6.31,0.6645 9.375,1.2695 3.065,0.605 5.889,1.7048 8.985,2.3438 3.096,0.639 6.672,1.062 9.57,1.4648 2.898,0.4028 5.551,0.6819 7.813,0.9766 2.262,0.2947 3.547,0.5451 5.761,0.7812 2.214,0.2361 4.563,0.6042 7.52,0.586 2.957,-0.018 6.26,-0.067 8.593,-0.3804 2.334,-0.3131 4.125,-0.7948 5.43,-1.2276 1.305,-0.4328 2.446,-1.0502 3.867,-1.9335 1.421,-0.8833 2.9,-2.2091 4.557,-3.4527 1.657,-1.2436 3.488,-2.6175 4.35,-4.0051 0.862,-1.3876 1.503,-1.6734 1.589,-3.0383 0.09,-1.3649 -0.231,-3.4291 -0.276,-5.11 -0.05,-1.6809 -0.221,-3.4158 0,-4.9718 0.221,-1.556 0.779,-2.9226 1.242,-4.2813 0.463,-1.3587 0.879,-2.5482 1.52,-3.867 0.641,-1.3188 1.359,-3.1145 2.347,-4.0051 0.988,-0.8906 1.885,-1.0001 3.039,-1.3811 1.154,-0.381 2.435,-0.6556 3.867,-0.8286 1.432,-0.173 3.176,-0.092 4.695,-0.1381 1.519,-0.046 2.762,-0.1329 4.42,-0.1381 1.658,-0.01 3.406,0.132 5.524,0.1381 2.118,0.01 4.821,0.1644 7.182,-0.1381 2.361,-0.3025 5.075,-0.7664 6.905,-1.6573 1.83,-0.8909 3.104,-2.0279 4.005,-3.1765 0.901,-1.1486 0.881,-2.0892 1.519,-3.3145 0.638,-1.2253 1.67,-2.5278 2.348,-4.0051 0.678,-1.4773 1.262,-2.8217 1.657,-4.8338 0.395,-2.0121 0.462,-5.0807 0.415,-7.1815 -0.05,-2.1008 -0.366,-3.3377 -0.553,-5.3862 -0.187,-2.0485 -0.363,-4.926 -0.552,-6.9053 -0.189,-1.9793 -0.507,-3.609 -0.553,-4.9719 -0.05,-1.3629 -0.287,-2.5512 0.139,-3.1764 0.426,-0.6252 0.669,-0.3363 1.242,-0.5525 0.573,-0.2162 0.853,-0.2733 2.21,-0.6905 1.357,-0.4172 3.892,-0.7779 5.939,-1.7954 2.047,-1.0175 4.236,-2.9152 6.076,-4.4194 1.84,-1.5042 3.335,-3.155 4.972,-4.5575 1.637,-1.4025 3.291,-3.1106 4.834,-3.867 1.543,-0.7564 2.552,-0.7287 4.005,-0.9668 1.453,-0.2381 3.108,-0.2989 4.696,-0.4143 1.588,-0.1154 3.154,-0.2061 4.834,-0.2762 1.68,-0.07 3.621,0.1559 5.248,-0.1381 1.627,-0.294 3.077,-0.8626 4.419,-1.5192 1.342,-0.6566 2.291,-1.3665 3.591,-2.3478 1.3,-0.9813 3.116,-2.3058 4.143,-3.5908 1.027,-1.285 1.351,-2.7172 2.072,-3.867 0.721,-1.1498 1.443,-2.1416 2.209,-3.0383 0.766,-0.8967 1.674,-1.8435 2.348,-2.3478 0.674,-0.5043 0.938,-0.8798 1.519,-0.8287 0.581,0.051 0.931,0.5339 1.381,1.1049 0.45,0.571 0.52,1.04 1.105,2.3478 0.585,1.3078 1.54,3.5453 2.348,5.5243 0.808,1.979 1.482,4.4132 2.486,6.3529 1.004,1.9397 2.365,2.814 3.453,5.248 1.088,2.434 1.91,6.8062 2.486,9.3913 0.576,2.5851 0.916,3.5575 1.104,6.0767 0.188,2.5192 -0.02,6.8367 -0.276,8.9769 -0.26,2.1402 -0.385,2.1121 -0.828,3.867 -0.443,1.7549 -1.188,4.579 -1.934,6.6292 -0.746,2.0502 -1.929,3.1969 -2.486,5.6623 -0.557,2.4654 -0.451,6.1345 -0.276,8.977 0.175,2.8425 1.082,5.5825 1.243,8.0102 0.161,2.4277 0.157,4.6385 -0.138,6.491 -0.295,1.8525 -0.561,2.1738 -1.381,4.5575 -0.82,2.3837 -2.529,6.9816 -3.729,9.6675 -1.2,2.6859 -2.352,4.4157 -3.315,6.491 -0.963,2.0753 -1.909,4.2936 -2.486,5.9386 -0.577,1.645 -0.752,2.3942 -1.105,3.867 -0.353,1.4728 -0.89,2.9471 -0.966,4.9718 -0.08,2.0247 0.55,4.8799 0.828,7.0435 0.278,2.1636 0.07,2.8548 0.829,5.9386 0.761,3.0838 3.143,9.3946 4.419,12.2915 1.276,2.8969 1.932,3.4273 2.763,5.248 0.831,1.8207 1.708,3.7839 2.209,5.6624 0.501,1.8785 0.337,3.532 0.829,5.5243 0.492,1.9923 1.348,4.3934 2.21,6.3529 0.862,1.9595 2.18,3.8092 2.9,5.3862 0.72,1.577 1.174,2.4751 1.519,4.0051 0.345,1.53 0.393,3.1026 0.414,5.1099 0.02,2.0073 -0.01,4.8673 -0.414,6.9054 -0.402,2.0381 -0.728,3.3235 -1.795,5.248 -1.067,1.9245 -3.173,4.6542 -4.834,5.9386 -1.661,1.2844 -3.048,1.5758 -4.493,2.0548 -1.445,0.479 -2.556,0.5969 -4.102,0.8789 -1.546,0.282 -3.415,0.6009 -5.175,0.7813 -1.76,0.1804 -2.811,0.06 -5.371,0.2929 -2.56,0.2326 -5.859,0.7485 -9.961,1.2696 -4.102,0.5211 -9.977,1.3209 -14.649,1.8554 -4.672,0.5345 -10.805,0.9447 -13.379,1.3672 -2.574,0.4225 -1.474,0.2235 -2.148,0.4883 -0.674,0.2648 -0.782,0.3803 -1.856,1.0742 -1.074,0.6939 -4.391,1.9832 -4.492,3.2227 -0.101,1.2395 0.561,1.3479 1.367,1.3672 0.806,0.019 1.269,-1.3505 2.149,-1.9532 0.88,-0.6027 1.995,-1.1648 3.125,-1.5625 1.13,-0.3977 2.176,-0.6134 3.613,-0.7812 1.437,-0.1678 2.712,0.078 4.981,-0.098 2.269,-0.1764 6.215,-0.9073 8.593,-1.1718 2.378,-0.2645 3.97,-0.2503 5.664,-0.4883 1.694,-0.238 3.011,-0.6354 4.493,-0.8789 1.482,-0.2435 2.587,-0.3424 4.394,-0.586 1.807,-0.2436 4.345,-0.6358 6.445,-0.8789 2.1,-0.2431 3.972,-0.3745 6.153,-0.5859 2.181,-0.2114 4.817,-0.4003 6.933,-0.6836 2.116,-0.2833 3.818,-0.2692 5.762,-0.9766 1.944,-0.7074 4.157,-2.1062 5.664,-3.3205 z"
       id="river_teufel"
       sodipodi:nodetypes="zzzzzzzzzzzzzzzzzzzzzzzzzzzzzzzzzzzzzzzzzzzzzzzzzzzzzzzzzzzzzzzzzzzzzzzzzzzzzzzzzzzzzzzzsszzzzzzzzzzzzzzzzzzzzzzzzzzzzzzzzzzzzzzzzzzzzzzzzzzzzzzzzzzzzzzzzzzzzzzzzzzzzzzzzzzzzzzzzzzzzzzzzzzzzzzzzzzzzzzzzzzzzzzzzzzzzzzzzzzzzzzzzzzzzzzzzzzzzzzzzzzzzzzzzzzzzzzzzzzzzzzzzzzzzzzzzzzzzzzzzzzzzzzzzzzzzzzzzzzzzzzzzzzzzzzzzzzzzzzzzzzzzzzzzzzzzzzzzzzzzzzzzzzzzzzzzzzzzzzzzzzzzzzzzzzzzzzzzzzzzz" />
    <path
       id="river_reik"
       style="display:inline;fill:#0000ff;fill-opacity:1;stroke:none;stroke-width:5;stroke-linecap:round;stroke-dasharray:none;stroke-opacity:1;paint-order:stroke fill markers"
       d="m 13480.22,8154.3981 c -6.054,-1.6911 -11.687,-2.9317 -16.11,-4.6542 -4.423,-1.7225 -7.414,-3.2703 -10.483,-5.2144 -3.069,-1.9441 -5.239,-3.72 -7.924,-6.2477 -2.685,-2.5277 -5.338,-5.9246 -8.008,-8.9843 -2.67,-3.0597 -4.663,-6.6016 -8.007,-9.375 -3.344,-2.7734 -7.976,-5.0946 -11.915,-6.836 -3.939,-1.7414 -6.427,-1.9147 -11.523,-3.7109 -5.096,-1.7962 -12.439,-4.7212 -18.964,-7.2736 -6.525,-2.5524 -13.894,-5.3819 -20.183,-8.0489 -6.289,-2.667 -11.138,-5.3413 -17.562,-7.9002 -6.424,-2.5589 -14.469,-5.5899 -20.992,-7.3183 -6.523,-1.7284 -12.161,-2.0125 -17.953,-3.3154 -5.792,-1.3029 -10.826,-2.6688 -16.783,-4.4624 -5.956,-1.7936 -13.699,-4.5441 -18.914,-6.3742 -5.215,-1.8301 -6.746,-3.3018 -12.399,-4.5258 -5.653,-1.224 -14.802,-1.7938 -21.441,-1.6433 -6.639,0.1505 -10.357,0.1233 -18.207,2.2293 -7.85,2.106 -19.474,8.0331 -27.992,11.914 -8.518,3.8809 -14.152,7.2745 -23.146,11.257 -8.994,3.9825 -21.882,7.9864 -30.894,12.3759 -9.012,4.3895 -16.285,9.1581 -23.242,13.4765 -6.957,4.3184 -10.023,7.614 -18.554,12.3047 -8.532,4.6907 -22.241,11.6084 -33.014,14.7352 -10.773,3.1268 -22.409,3.7043 -30.826,4.506 -8.417,0.8017 -13.399,0.8073 -19.559,0.876 -6.16,0.069 -8.805,0.4831 -17.382,-0.3906 -8.577,-0.8737 -24.176,-3.5251 -33.782,-6.1674 -9.606,-2.6423 -15.11,-6.12 -23.836,-8.8717 -8.726,-2.7517 -19.757,-5.2497 -28.516,-7.4219 -8.759,-2.1722 -15.811,-4.5978 -24.023,-5.664 -8.212,-1.0662 -15.39,-0.3452 -24.995,-0.6669 -9.605,-0.3214 -20.645,-0.6636 -32.622,-1.4816 -11.977,-0.818 -25.81,-1.119 -35.909,-3.1504 -10.099,-2.0314 -16.187,-4.76 -24.534,-7.8457 -8.347,-3.0857 -14.794,-6.6596 -25.472,-10.7285 -10.678,-4.0689 -27.935,-9.7495 -38.719,-13.2414 -10.784,-3.4919 -15.985,-5.8644 -23.953,-9.8757 -7.968,-4.0113 -15.609,-6.7399 -23.219,-13.7482 -7.611,-7.0082 -16.317,-18.0537 -23.458,-26.8339 -7.14,-8.7803 -14.042,-17.4423 -19.453,-25.7384 -5.411,-8.2961 -9.113,-15.6693 -13.231,-23.7264 -4.118,-8.0571 -7.808,-15.5169 -11.463,-24.5841 -3.655,-9.0672 -8.545,-19.1148 -10.22,-29.83 -1.675,-10.7152 0.437,-22.7148 0.668,-33.5332 0.231,-10.8184 3.608,-21.9962 0.713,-31.377 -2.895,-9.3808 -7.854,-16.8157 -16.02,-22.375 -8.166,-5.5593 -22.354,-7.1531 -30.799,-7.7324 -8.445,-0.5793 -12.677,2.6256 -18.92,2.0703 -6.243,-0.5553 -11.532,-2.9694 -17.815,-5.2471 -6.283,-2.2777 -13.119,-5.5947 -19.749,-8.5634 -6.63,-2.9687 -13.395,-6.3312 -20.026,-9.2531 -6.631,-2.9219 -12.495,-3.4523 -19.749,-8.286 -7.254,-4.8337 -17.708,-15.1876 -21.995,-21.6837 -4.287,-6.4961 -4.372,-8.7942 -5.779,-14.7186 -1.407,-5.9244 -1.534,-13.6379 -1.91,-20.6348 -0.377,-6.9969 -0.387,-13.9946 -0.325,-21.3163 0.06,-7.3218 0.331,-14.9428 0.726,-22.6016 0.395,-7.6588 1.105,-15.9758 1.659,-23.3417 0.554,-7.3659 2.167,-14.3689 1.657,-20.854 -0.511,-6.4851 -2.833,-12.1292 -4.243,-17.6074 -1.41,-5.4782 -4.243,-10.5324 -5.08,-15.8024 -0.837,-5.27 -1.643,-12.5018 -1.258,-16.2758 0.386,-3.774 0.968,-9.2479 2.301,-12.952 1.333,-3.7041 3.497,-7.9644 6.297,-11.19 2.8,-3.2256 5.462,-7.1357 10.153,-7.7755 4.692,-0.6399 9.812,3.377 14.491,5.8285 4.68,2.4515 8.643,6.284 13.422,8.8472 4.78,2.5631 9.677,5.0027 15.154,6.4375 5.477,1.4348 12.097,1.9479 17.402,1.9336 5.305,-0.014 8.213,-0.5659 14.225,-1.6582 6.012,-1.0923 15.675,-3.0629 21.684,-5.3848 6.009,-2.3219 9.411,-3.3756 14.361,-7.7345 4.95,-4.3589 9.956,-12.2264 13.535,-18.9219 3.579,-6.6955 6.35,-15.0302 7.872,-20.8525 1.522,-5.8223 1.431,-8.734 2.071,-13.6629 0.64,-4.9289 1.126,-10.2173 1.724,-15.91 0.599,-5.6927 1.441,-13.0995 2.005,-19.1747 0.563,-6.0753 1.053,-12.132 0.644,-17.8001 -0.409,-5.6681 -0.744,-11.2278 -2.737,-17.1836 -1.993,-5.9558 -4.79,-13.057 -9.507,-17.916 -4.717,-4.859 -10.545,-7.253 -17.683,-10.0684 -7.138,-2.8154 -17,-5.2674 -24.992,-5.9512 -7.992,-0.6838 -13.291,-0.2557 -22.393,1.4141 -9.102,1.6698 -21.08,6.2413 -31.607,9.7715 -10.527,3.5302 -19.987,8.5866 -29.613,10.7344 -9.626,2.1478 -19.534,3.1348 -27.563,2.5234 -8.029,-0.6114 -12.918,-2.9316 -20.026,-4.9707 -7.108,-2.0391 -15.439,-3.85 -22.564,-7.3633 -7.125,-3.5133 -13.892,-8.5191 -19.062,-14.3281 -5.171,-5.809 -8.063,-10.7116 -9.827,-17.2402 -1.763,-6.5286 -1.826,-14.8961 -0.199,-20.7305 1.627,-5.8344 10.24,-7.2401 8.207,-13.2793 -2.033,-6.0392 -15.801,-6.2416 -21.109,-8.1348 -5.308,-1.8932 -8.254,-3.5741 -10.631,-3.4922 -2.377,0.082 -1.566,0.2765 -2.856,1.1616 -1.29,0.8851 1.554,14.4098 3.741,22.6386 2.187,8.2288 6.587,18.6777 9.804,26.3789 3.217,7.7012 5.71,14.6861 9.254,19.8868 3.331,4.8879 10.993,13.9227 25.274,20.3027 7.587,3.3895 19.12,6.5279 27.135,8.6093 8.014,2.0815 11.912,3.6856 20.787,4.2344 8.875,0.5488 21.462,-0.1552 32.041,-2.4863 10.579,-2.3311 20.639,-8.062 30.798,-11.4629 10.159,-3.4009 22.09,-7.3853 30.108,-8.9765 8.018,-1.5912 10.836,-2.3939 17.538,-1.7959 6.702,0.598 16.362,4.2801 21.858,6.2861 5.496,2.006 7.858,1.9745 11.287,5.0391 3.429,3.0646 5.964,8.3806 7.725,13.1269 1.761,4.7463 2.349,9.7193 2.691,14.9024 0.342,5.1831 -0.127,10.0986 -0.748,16.0058 -0.621,5.9072 -1.784,13.2641 -2.395,19.161 -0.612,5.8969 -0.773,11.3262 -1.482,16.1356 -0.709,4.8094 -1.01,7.8213 -2.589,12.7034 -1.579,4.8821 -3.866,11.2716 -7.34,16.2402 -3.474,4.9686 -7.514,8.8651 -13.258,12.9814 -5.744,4.1163 -13.884,8.9346 -21.27,10.7725 -7.386,1.8379 -14.804,1.4239 -21.82,0.4141 -7.016,-1.0098 -13.251,-2.8762 -18.773,-5.6289 -5.523,-2.7526 -9.452,-7.6438 -14.045,-10.3145 -4.593,-2.6707 -8.268,-5.0978 -13.2,-5.892 -4.932,-0.7942 -10.671,-0.2509 -15.44,1.557 -4.769,1.8079 -8.819,5.2982 -12.24,8.8155 -3.421,3.5173 -6.091,7.836 -8.062,11.877 -1.971,4.041 -2.94,7.8787 -3.867,12.0156 -0.927,4.1369 -1.453,8.5034 -1.656,12.707 -0.203,4.2036 0.333,11.5653 1.391,17.1172 1.057,5.5519 3.47,10.6911 4.871,16.0117 1.401,5.3206 3.071,9.8465 3.545,15.8848 0.474,6.0383 -0.76,12.8877 -1.263,20.0258 -0.504,7.1381 -1.436,14.6224 -1.776,22.8004 -0.34,8.178 -0.142,18.0226 -0.139,26.2402 0,8.2176 -0.274,15.3446 0.139,23.0645 0.413,7.7199 0.569,16.9276 2.348,23.2022 1.779,6.2746 2.237,7.8172 6.903,14.2248 4.666,6.4076 14.071,16.0593 22.926,21.9597 8.855,5.9004 22.463,9.497 29.418,12.8437 6.955,3.3467 6.421,3.5681 12.569,6.6289 6.148,3.0608 16.391,8.884 24.443,11.4629 8.052,2.5789 16.167,3.8861 23.342,4.2813 7.175,0.3952 12.449,-1.8547 19.334,-1.382 6.884,0.4727 15.512,0.7875 21.545,4.5578 6.033,3.7703 10.118,8.6817 12.705,16.2968 2.587,7.6151 0.157,17.1273 -0.201,27.5899 -0.358,10.4626 -3.612,23.2959 -2.149,35.1562 1.463,11.8603 6.945,24.4623 11.005,34.7796 4.06,10.3173 8.684,18.4919 12.89,27.1402 4.206,8.6483 7.223,16.2726 12.325,24.7573 5.102,8.4847 11.316,16.7922 18.468,25.8229 7.152,9.0306 16.162,20.5176 24.609,28.125 8.447,7.6074 15.722,13.1194 25.195,17.7735 9.473,4.6541 18.972,8.3124 29.883,11.914 10.911,3.6015 22.632,9.0866 32.812,13.2813 10.18,4.1947 16.957,7.1502 25.977,10.3516 9.02,3.2014 18.874,5.6159 30.335,7.4079 11.461,1.792 24.612,3.3376 37.098,3.6076 12.486,0.2699 25.79,-0.8794 35.605,-0.6836 9.815,0.1958 16.479,0.5043 24.103,1.2009 7.624,0.6965 13.498,1.4028 21.611,2.879 8.113,1.4762 19.195,3.8114 26.964,6.2432 7.769,2.4318 9.364,4.9082 19.661,7.835 10.297,2.9268 32.493,6.5097 42.41,7.483 9.917,0.9733 10.377,0.2984 16.721,0.3514 6.344,0.053 11.792,0.7551 21.34,-0.092 9.548,-0.8471 24.26,-2.3979 35.632,-6.2145 11.372,-3.8166 23.265,-11.3471 31.84,-16.3715 8.576,-5.0243 13.005,-8.9184 19.866,-13.1601 6.861,-4.2417 12.713,-7.8796 21.29,-12.2579 8.578,-4.3783 21.41,-9.6504 30.308,-13.5903 8.898,-3.9399 14.274,-6.3021 23.064,-10.0835 8.79,-3.7814 22.484,-10.7639 29.693,-12.5664 7.209,-1.8025 7.632,-0.9996 12.291,-1.1054 4.659,-0.1058 10.802,0.01 15.608,0.6914 4.806,0.6816 7.69,1.4167 13.12,3.1761 5.43,1.7594 12.832,5.6455 19.196,7.8727 6.364,2.2272 13.353,4.2335 18.92,5.5234 5.567,1.2899 8.95,1.4182 14.364,2.4852 5.413,1.067 12.016,1.9456 18.091,4.0051 6.075,2.0595 12.23,5.8273 18.092,8.4257 5.862,2.5984 10.42,4.6672 17.065,7.1865 6.645,2.5193 16.658,5.4634 22.849,7.7296 6.191,2.2662 10.207,3.5354 14.361,5.6621 4.154,2.1267 7.653,4.3132 10.571,6.788 2.918,2.4748 4.638,5.1256 6.97,7.712 2.332,2.5864 4.562,5.3058 7.024,7.8066 2.462,2.5008 4.463,4.5796 7.732,7.1816 3.269,2.602 5.597,5.098 12.016,8.1482 6.419,3.0502 20.305,5.9498 26.939,8.0768 6.634,2.127 9.335,2.4525 12.941,4.4218 3.606,1.9693 6.535,3.9946 8.598,6.82 2.063,2.8254 2.233,6.2962 3.537,9.3692 1.4,3.3 2.931,6.5483 4.596,9.7226 1.803,3.4368 3.936,6.6907 5.834,10.0762 1.934,3.45 3.881,6.8957 5.656,10.4297 2.013,4.0047 3.519,8.2591 5.658,12.1973 1.163,2.1404 2.787,4.0149 3.889,6.1875 1.663,3.279 2.403,6.9724 4.065,10.2519 1.66,3.2766 3.64,6.4067 5.859,9.334 1.461,1.9276 2.991,3.8582 4.875,5.375 1.759,1.4162 3.877,2.3214 5.875,3.375 2.291,1.2085 4.575,2.4649 7,3.375 2.792,1.0476 5.726,1.6747 8.625,2.375 2.979,0.7196 5.983,1.3374 9,1.875 6.428,1.1455 12.868,2.3331 19.375,2.875 2.201,0.1833 4.435,-0.161 6.625,0.125 2.425,0.3167 4.767,1.1021 7.125,1.75 0.966,0.2654 1.933,0.5343 2.875,0.875 0.808,0.2921 1.6,0.6287 2.375,1 1.58,0.7576 3.07,1.6914 4.625,2.5 2.397,1.2467 4.829,2.4258 7.25,3.625 2.204,1.0917 4.477,2.0507 6.625,3.25 1.978,1.1047 3.923,2.2851 5.75,3.625 2.599,1.9056 5.037,4.0329 7.375,6.25 2.203,2.0888 4.324,4.2784 6.25,6.625 1.687,2.0553 3.189,4.2618 4.625,6.5 1.713,2.6708 3.667,5.2672 4.75,8.25 1.314,3.6188 1.249,7.5992 2,11.375 0.525,2.6374 1.141,5.2558 1.75,7.875 0.801,3.4487 0.962,7.1351 2.504,10.3223 1.042,2.154 2.608,4.0936 4.42,5.6562 1.539,1.3268 3.533,2.008 5.303,3.0059 2.413,1.3605 4.679,3.0279 7.248,4.0664 2.146,0.8679 4.48,1.1684 6.716,1.7676 1.947,0.5216 3.928,0.9356 5.834,1.5898 2.174,0.7458 4.351,1.5471 6.366,2.6523 2.078,1.14 3.836,2.7906 5.834,4.0665 2.069,1.3219 4.129,2.6931 6.363,3.7128 5.153,2.3522 10.642,3.9119 16.086,5.4786 3.2,0.921 6.533,1.3415 9.722,2.2988 4.268,1.2807 8.453,2.8489 12.551,4.5957 2.716,1.1572 5.198,2.8361 7.955,3.8887 4.061,1.55 8.378,2.3233 12.551,3.5371 2.954,0.859 5.981,1.5164 8.84,2.6504 2.45,0.9714 4.748,2.2894 7.07,3.5351 3.233,1.7345 6.314,3.746 9.547,5.4805 3.484,1.8687 7.011,3.664 10.608,5.3047 3.365,1.5351 6.773,2.9844 10.252,4.2422 2.611,0.9443 5.358,1.4905 7.955,2.4746 2.417,0.9159 4.92,1.7502 7.072,3.1816 2.013,1.3391 3.944,2.9486 5.303,4.9492 1.634,2.4082 2.173,5.4025 3.181,8.1328 0.995,2.6921 2.13,5.3473 2.828,8.1309 0.552,2.1989 0.827,4.4639 1.061,6.7188 0.243,2.3473 0.661,4.7303 0.353,7.0703 -0.225,1.7183 -1.022,3.3115 -1.589,4.9492 -0.72,2.079 -1.464,4.152 -2.299,6.1875 -1.853,4.516 -4.846,8.6132 -6.01,13.3535 -0.677,2.7563 -0.568,5.6626 -0.5,8.5 0.113,4.692 0.654,9.3835 1.5,14 1.009,5.5071 3.725,10.6758 4.25,16.25 0.344,3.659 -0.04,7.3944 -0.75,11 -0.817,4.1365 -3.18,7.8641 -4,12 -0.698,3.5235 -0.808,7.1584 -0.75,10.75 0.05,3.2666 0.692,6.4975 1,9.75 0.363,3.8306 0.872,7.6543 1,11.5 0.135,4.0819 -0.631,6.8443 -0.25,12.25 0.381,5.4057 1.963,15.102 3.25,20 1.287,4.898 2.609,6.1126 3.5,9.5 0.891,3.3874 1.557,6.8941 1.75,10.75 0.193,3.8559 -0.891,8.3154 -0.75,12.25 0.141,3.9346 0.433,7.4141 1.5,11.25 1.067,3.8359 2.219,8.3798 5,11.5 2.435,2.7314 6.188,3.9451 9.5,5.5 3.055,1.4341 6.379,2.2158 9.5,3.5 5.759,2.3698 11.536,4.7611 17,7.75 4.177,2.2853 7.864,5.39 12,7.75 3.237,1.8471 6.74,3.1934 10,5 3.075,1.7044 6.498,3.0297 9,5.5 2.451,2.4206 3.797,5.7553 5.5,8.75 1.99,3.499 3.737,7.1313 5.5,10.75 2.171,4.4582 4.534,8.8474 6.25,13.5 1.497,4.0597 0.973,8.8585 1.909,13.2071 0.961,4.4684 2.996,8.6762 3.793,13.1768 0.67,3.7839 0.453,8.1469 0.811,11.5 0.358,3.3531 0.697,4.826 1.237,8.6161 0.54,3.7901 0.843,10.0226 2,14.125 1.157,4.1024 2.348,6.918 4.5,10.375 2.152,3.457 6.047,7.0371 8.5,10 2.453,2.9629 4.505,4.7688 6.25,7.75 1.745,2.981 3.366,6.466 4,10 0.574,3.2 0.551,6.599 -0.25,9.75 -1.038,4.081 -3.697,7.573 -5.75,11.25 -1.33,2.384 -2.437,4.959 -4.25,7 -1.616,1.82 -3.504,3.019 -5.75,4.5 -2.246,1.481 -5.035,2.355 -7.75,4.25 -2.715,1.895 -5.854,4.575 -8.311,7.246 -2.457,2.671 -4.847,6.085 -6.365,8.662 -1.518,2.578 -1.434,4.036 -3.006,6.541 -1.572,2.505 -4.497,4.898 -6.716,8.131 -2.219,3.233 -5.148,8.077 -6.364,11.314 -1.216,3.237 -0.342,5.051 -1.592,7.602 -1.25,2.551 -3.773,4.704 -6.009,7.07 -2.236,2.366 -5.362,4.564 -7.424,7.071 -2.062,2.506 -3.324,5.172 -4.951,7.779 -1.793,2.872 -3.772,5.643 -5.303,8.662 -1.123,2.215 -1.895,4.592 -2.828,6.895 -1.311,3.235 -2.757,6.421 -3.891,9.722 -1.035,3.016 -2.412,6.012 -2.65,9.192 -0.235,3.141 0.234,6.382 1.236,9.369 0.798,2.377 2.312,4.462 3.713,6.541 1.008,1.496 2.146,2.908 3.359,4.242 2.692,2.96 5.804,5.509 8.663,8.309 1.964,1.924 3.811,3.97 5.834,5.834 1.875,1.728 4.294,2.915 5.834,4.949 1.368,1.808 2.379,3.964 2.828,6.187 0.385,1.907 0.298,3.948 -0.178,5.834 -0.934,3.705 -3.716,7.364 -5.125,10.254 -1.409,2.89 -2.42,4.737 -3.359,7.071 -0.939,2.333 -1.854,4.782 -2.299,6.894 -0.445,2.112 -1.027,3.894 -0.53,5.656 0.497,1.762 1.784,2.685 3.182,4.242 1.398,1.558 3.342,2.93 5.303,4.952 1.961,2.021 4.723,4.481 6.363,7.246 1.665,2.805 2.266,6.12 3.359,9.193 1.087,3.055 2.211,6.098 3.182,9.192 0.715,2.278 1.424,4.564 1.945,6.894 0.548,2.449 1.239,4.917 1.239,7.426 0,2.15 -0.959,4.215 -1.063,6.363 -0.165,3.422 -0.03,6.909 0.707,10.254 0.817,3.697 2.503,7.157 4.067,10.605 1.512,3.337 3.073,6.689 5.127,9.723 1.733,2.562 3.82,4.886 6.009,7.072 2.515,2.511 5.475,4.534 8.131,6.895 2.649,2.355 4.251,7.575 7.779,7.246 2.77,-0.258 5.496,-3.99 4.95,-6.717 -0.54,-2.695 -4.763,-2.749 -7.071,-4.242 -1.386,-0.897 -2.787,-1.784 -4.066,-2.828 -2.712,-2.214 -5.44,-4.494 -7.602,-7.248 -1.971,-2.513 -3.39,-5.429 -4.771,-8.309 -1.259,-2.624 -2.365,-5.339 -3.184,-8.133 -0.676,-2.306 -1.216,-4.674 -1.414,-7.07 -0.15,-1.821 0.31,-3.657 0.178,-5.48 -0.121,-1.672 -0.654,-3.29 -0.885,-4.95 -0.408,-2.932 -0.431,-5.913 -0.883,-8.839 -0.394,-2.559 -1.065,-5.065 -1.591,-7.6 -0.416,-2.003 -0.7,-4.038 -1.239,-6.012 -0.623,-2.283 -1.373,-4.537 -2.297,-6.717 -1.264,-2.984 -2.797,-5.855 -4.419,-8.662 -1.407,-2.434 -3.528,-4.641 -5.346,-6.697 -1.818,-2.056 -4.028,-4.209 -5.522,-5.644 -1.493,-1.436 -2.551,-2.002 -3.363,-3.038 -0.811,-1.035 -1.125,-1.71 -1.108,-3.169 0.02,-1.459 1.133,-3.285 1.905,-5.051 0.772,-1.765 1.929,-3.894 2.756,-5.513 0.827,-1.62 1.474,-2.86 2.193,-4.209 0.719,-1.35 1.569,-2.781 2.121,-3.891 0.552,-1.11 0.726,-0.942 1.237,-2.739 0.511,-1.796 1.023,-5.399 1.06,-8.133 0.03,-2.31 0.07,-4.717 -0.707,-6.894 -0.683,-1.925 -2.086,-3.526 -3.357,-5.125 -1.167,-1.468 -2.416,-2.909 -3.891,-4.067 -1.391,-1.092 -3.247,-1.508 -4.596,-2.652 -1.628,-1.381 -2.645,-3.353 -4.064,-4.949 -1.412,-1.588 -2.995,-3.019 -4.42,-4.596 -1.71,-1.892 -3.384,-3.82 -4.949,-5.834 -1.686,-2.169 -3.778,-4.157 -4.774,-6.717 -0.689,-1.771 -0.836,-3.762 -0.707,-5.658 0.125,-1.825 0.871,-3.556 1.414,-5.303 0.521,-1.672 1.286,-3.264 1.768,-4.949 0.763,-2.667 0.685,-5.579 1.768,-8.133 0.663,-1.564 2.036,-2.738 2.828,-4.242 0.738,-1.404 1.029,-3.015 1.767,-4.42 1.187,-2.256 2.745,-4.299 4.242,-6.363 1.454,-2.004 2.986,-3.955 4.598,-5.834 1.575,-1.835 3.067,-3.523 4.949,-5.303 1.882,-1.779 4.763,-3.804 6.364,-5.304 1.601,-1.5 2.58,-2.164 3.359,-3.536 0.779,-1.371 0.709,-2.213 1.238,-4.417 0.529,-2.205 0.953,-6.515 1.768,-8.84 0.815,-2.326 1.601,-3.773 2.65,-5.127 1.049,-1.354 2.29,-1.854 3.36,-3.004 1.07,-1.15 2.026,-2.448 3.005,-3.891 0.979,-1.443 2.072,-3.32 2.829,-4.771 0.757,-1.451 1.108,-2.741 1.767,-3.891 0.659,-1.15 1.029,-1.786 2.121,-3.004 1.092,-1.218 2.99,-2.425 4.598,-4.066 1.608,-1.642 3.16,-4.292 4.947,-5.834 1.787,-1.543 3.99,-2.436 5.533,-3.444 1.543,-1.007 2.609,-1.692 3.748,-2.566 1.139,-0.874 2.076,-1.71 3.094,-2.652 1.018,-0.943 1.723,-1.47 3.006,-3.004 1.283,-1.534 3.018,-4.196 4.42,-6.365 1.492,-2.309 2.967,-4.636 4.242,-7.071 0.93,-1.775 1.919,-3.555 2.475,-5.48 0.594,-2.058 0.737,-4.227 0.884,-6.364 0.147,-2.116 0.197,-4.253 0,-6.365 -0.177,-1.91 -0.574,-3.944 -1.06,-5.656 -0.486,-1.712 -0.931,-2.928 -1.77,-4.596 -0.839,-1.6677 -1.713,-3.0884 -3.357,-5.3043 -1.644,-2.2159 -4.556,-4.9199 -6.719,-7.7774 -2.163,-2.8575 -4.522,-6.0143 -6.185,-9.3691 -1.663,-3.3548 -2.913,-7.2532 -3.713,-10.6074 -0.8,-3.3542 -0.994,-6.8024 -1.238,-9.3692 -0.244,-2.5668 -0.154,-3.7396 -0.352,-6.0098 -0.198,-2.2702 -0.503,-5.0368 -0.885,-7.6015 -0.382,-2.5647 -1.016,-5.1725 -1.416,-7.7774 -0.432,-2.8175 -0.484,-5.6944 -1.058,-8.4863 -0.471,-2.2832 -1.401,-4.4502 -1.946,-6.7168 -0.364,-1.5169 -0.584,-3.0647 -0.884,-4.5957 -0.521,-2.6536 -0.804,-5.3679 -1.59,-7.9551 -0.761,-2.5022 -2.054,-4.812 -3.006,-7.248 -1.12,-2.865 -1.854,-5.8873 -3.182,-8.6621 -1.779,-3.7194 -4.219,-7.0856 -6.363,-10.6074 -1.225,-2.0114 -2.307,-4.1209 -3.713,-6.0098 -0.847,-1.1383 -1.769,-2.2367 -2.828,-3.1817 -1.451,-1.2955 -3.103,-2.3617 -4.774,-3.3593 -1.81,-1.0811 -3.804,-1.8207 -5.656,-2.8282 -2.344,-1.275 -4.57,-2.756 -6.894,-4.0664 -2.274,-1.2818 -4.571,-2.5226 -6.895,-3.7109 -1.924,-0.9839 -3.928,-1.812 -5.834,-2.8301 -2.469,-1.3187 -4.844,-2.8073 -7.248,-4.2422 -1.362,-0.8133 -2.641,-1.7725 -4.064,-2.4746 -2.778,-1.3702 -5.749,-2.3096 -8.662,-3.3593 -2.104,-0.758 -4.368,-1.116 -6.366,-2.1211 -1.927,-0.9701 -3.4,-2.357 -5.302,-3.711 -1.902,-1.354 -4.661,-2.6266 -6.102,-4.4199 -1.441,-1.7933 -1.842,-3.2819 -2.5,-5.75 -0.658,-2.4681 -0.894,-5.6989 -1,-9 -0.106,-3.3011 0.596,-7.0526 0.5,-10.75 -0.1,-3.6974 -0.609,-7.9147 -1.125,-11.375 -0.516,-3.4603 -0.898,-6.2611 -1.875,-9.375 -0.977,-3.1139 -3.277,-6.4698 -4,-9.1875 -0.723,-2.7177 -0.52,-3.4898 -0.75,-6.8125 -0.23,-3.3227 -0.344,-8.2905 -0.375,-13.125 -0.03,-4.8345 1.007,-10.6371 0.25,-15.875 -0.2,-1.3825 -1.029,-2.6206 -1.25,-4 -0.461,-2.8804 -0.277,-5.837 -0.125,-8.75 0.09,-1.76 0.266,-3.5245 0.625,-5.25 0.443,-2.1295 1.351,-4.139 1.875,-6.25 0.88,-3.5451 1.839,-7.1085 2.125,-10.75 0.17,-2.1616 0.06,-4.3535 -0.25,-6.5 -0.291,-2.0409 -0.954,-4.0122 -1.5,-6 -0.807,-2.9362 -2.059,-5.758 -2.625,-8.75 -0.847,-4.4777 -1.221,-9.0689 -1.125,-13.625 0.07,-3.3585 0.515,-6.7221 1.25,-10 0.585,-2.61 1.567,-5.1182 2.5,-7.625 1.055,-2.8356 2.239,-5.6245 3.5,-8.375 0.97,-2.1174 2.54,-3.9954 3.125,-6.25 0.953,-3.6738 0.764,-7.5889 0.5,-11.375 -0.239,-3.4241 -0.969,-6.8144 -1.875,-10.125 -1.183,-4.3229 -2.393,-8.7384 -4.625,-12.625 -2.343,-4.0805 -5.328,-7.9329 -9,-10.875 -3.723,-2.9827 -8.302,-4.7767 -12.75,-6.5 -4.553,-1.7637 -9.584,-2.0804 -14.125,-3.875 -3.241,-1.2811 -6.186,-3.214 -9.25,-4.875 -2.558,-1.3868 -5.018,-2.957 -7.625,-4.25 -3.259,-1.6167 -6.597,-3.0875 -10,-4.375 -3.438,-1.3009 -7.066,-2.0619 -10.5,-3.375 -3.153,-1.2058 -6.062,-3.0132 -9.25,-4.125 -4.265,-1.4876 -8.804,-2.0584 -13.125,-3.375 -4.185,-1.2752 -8.274,-2.8517 -12.375,-4.375 -3.982,-1.479 -7.924,-3.0653 -11.875,-4.625 -2.922,-1.1534 -5.91,-2.158 -8.75,-3.5 -3.052,-1.4419 -6.118,-2.9279 -8.875,-4.875 -3.327,-2.3494 -5.732,-5.8721 -9.125,-8.125 -3.619,-2.4032 -7.898,-3.6285 -11.766,-5.6074 -2.511,-1.2852 -5.062,-2.5225 -7.423,-4.0664 -2.181,-1.4255 -4.434,-2.8472 -6.188,-4.7735 -1.783,-1.9583 -3.017,-4.3689 -4.242,-6.7168 -1.124,-2.154 -2.108,-4.3982 -2.828,-6.7187 -0.606,-1.9536 -0.78,-4.0165 -1.239,-6.0098 -0.695,-3.0222 -1.345,-6.064 -2.296,-9.0156 -1.089,-3.3742 -2.4,-6.6809 -3.889,-9.8984 -1.152,-2.4883 -2.112,-5.1612 -3.891,-7.2481 -1.827,-2.1441 -4.45,-3.4537 -6.717,-5.1269 -2.854,-2.1078 -5.674,-4.2737 -8.662,-6.1875 -4,-2.5624 -8.175,-4.8493 -12.375,-7.0704 -2.376,-1.2567 -4.753,-2.5356 -7.248,-3.5371 -2.87,-1.1525 -5.842,-2.0572 -8.838,-2.8281 -3.256,-0.8379 -6.559,-1.5591 -9.9,-1.9433 -3.339,-0.3841 -6.726,-0.086 -10.076,-0.3536 -3.315,-0.2648 -6.612,-0.7314 -9.899,-1.2382 -2.901,-0.4475 -5.813,-0.8802 -8.662,-1.5899 -3.598,-0.8965 -7.123,-2.087 -10.607,-3.3594 -3.896,-1.4228 -7.967,-2.5858 -11.49,-4.7734 -3.655,-2.269 -7.152,-5.0353 -9.723,-8.4844 -2.632,-3.5308 -3.838,-7.9356 -5.48,-12.0215 -1.863,-4.634 -3.039,-9.528 -4.95,-14.1425 -2.651,-6.4042 -5.822,-12.5862 -9.015,-18.7383 -1.337,-2.5756 -2.757,-5.1087 -4.242,-7.6016 -1.858,-3.1177 -3.878,-6.1348 -5.834,-9.1914 -1.172,-1.8312 -2.487,-3.576 -3.536,-5.4805 -1.691,-3.0719 -3.336,-7.348 -4.42,-9.5468 -1.084,-2.1988 -0.372,-1.5736 -1.945,-3.711 -1.573,-2.1374 -3.59,-5.5645 -8.305,-8.2897 -4.715,-2.7252 -14.166,-3.7656 -20.22,-5.4567 z"
       sodipodi:nodetypes="zzzzzzzzzzzzzzzzzzzzzzzzzzzzzzzzzzzzzzzzzzzzzzzzzzzzzzzzzzzzzzzzzzzzzzzzzzzzzzzzzzzzzzzzzzzzzzzzzzzzzzzzzzzzzzzzzzzzzzzzzzzzzzzzzzzzzzzzzzzzzzzzzzzzzzzzzzzzzzzzzzzzzzzzzzzzzzzzzzzzzzzzzzzzzzssssssssssssssssssssssssssssssssssssssssssssssssssssssssssssssssszzzzzzsssssssssssszzzzzzssssssssssssssssssssssssssssssssssssssssssssssssssssssssssssssssssssssssssssssssssssssssssssssssssssssssssszzzzzzzzzssssssssssssssssssszzzzzzzzzzsssssssssssssssssssssssssssssssssssssssssssssssssssssssssszzzz" />
  </g>
</svg>
